<?xml version="1.0" encoding="UTF-8" standalone="no"?>
<svg
   xmlns:dc="http://purl.org/dc/elements/1.1/"
   xmlns:cc="http://creativecommons.org/ns#"
   xmlns:rdf="http://www.w3.org/1999/02/22-rdf-syntax-ns#"
   xmlns:svg="http://www.w3.org/2000/svg"
   xmlns="http://www.w3.org/2000/svg"
   xmlns:sodipodi="http://sodipodi.sourceforge.net/DTD/sodipodi-0.dtd"
   xmlns:inkscape="http://www.inkscape.org/namespaces/inkscape"
   id="Layer_1"
   data-name="Layer 1"
   viewBox="0 0 466 229.02353"
   width="466"
   height="229.02353"
   version="1.1"
   sodipodi:docname="truck.svg"
   inkscape:version="0.92.3 (2405546, 2018-03-11)">
  <metadata
     id="metadata43">
    <rdf:RDF>
      <cc:Work
         rdf:about="">
        <dc:format>image/svg+xml</dc:format>
        <dc:type
           rdf:resource="http://purl.org/dc/dcmitype/StillImage" />
        <dc:title>Car Truck towing</dc:title>
      </cc:Work>
    </rdf:RDF>
  </metadata>
  <defs
     id="defs41" />
  <sodipodi:namedview
     pagecolor="#ffffff"
     bordercolor="#666666"
     borderopacity="1"
     objecttolerance="10"
     gridtolerance="10"
     guidetolerance="10"
     inkscape:pageopacity="0"
     inkscape:pageshadow="2"
     inkscape:window-width="1920"
     inkscape:window-height="1001"
     id="namedview39"
     showgrid="false"
     fit-margin-top="0"
     fit-margin-left="0"
     fit-margin-right="0"
     fit-margin-bottom="0"
     inkscape:zoom="0.921875"
     inkscape:cx="98.469611"
     inkscape:cy="148.67608"
     inkscape:window-x="-9"
     inkscape:window-y="-9"
     inkscape:window-maximized="1"
     inkscape:current-layer="Layer_1" />
  <title
     id="title2">Car Truck towing</title>
  <path
     d="m 0,191 h 14.54 c 1.025,-8 4.012,-16 8.7,-22 H 0 Z"
     id="path4"
     style="fill:#ffffff"
     inkscape:connector-curvature="0" />
  <path
     d="m 341,21 v 98 h 56 V 100.38 C 385,97.419 376,86.808 376,74.205 V 21 Z"
     id="path6"
     style="fill:#ffffff"
     inkscape:connector-curvature="0" />
  <path
     d="M 390,21 V 74.205 A 13.064,13.064 0 0 0 403.257,87 h 29.732 A 47.138,47.138 0 0 1 441,87.9 v -5.29 a 3.011,3.011 0 0 0 -0.179,-1.021 c -0.081,-0.224 -0.151,-0.676 -0.209,-0.906 L 425.661,21 Z"
     id="path8"
     style="fill:#ffffff"
     inkscape:connector-curvature="0" />
  <path
     d="M 432.989,101 H 411 v 25.324 c 0,3.866 -3.5,6.676 -7.367,6.676 H 341 v 29 c 0,0.046 0.007,0.09 0.007,0.136 0,0.046 -0.007,0.09 -0.007,0.135 V 191 h 14.47 a 46.312,46.312 0 0 1 91.827,0 H 466 V 134.2 A 33.222,33.222 0 0 0 432.989,101 Z"
     id="path10"
     style="fill:#ffffff"
     inkscape:connector-curvature="0" />
  <path
     d="m 84.029,174.589 c -0.048,-0.048 -0.094,-0.1 -0.14,-0.145 a 32.013,32.013 0 0 0 -8,-6.151 l -0.021,-0.011 a 32.379,32.379 0 0 0 -30.827,0 32.023,32.023 0 0 0 -8.01,6.161 c -0.045,0.048 -0.092,0.1 -0.139,0.144 l -0.132,0.132 A 32.265,32.265 0 0 0 28.133,196.7 c 0,0.229 0,0.462 0.006,0.691 a 32.328,32.328 0 0 0 64.639,0.062 c 0.01,-0.291 0.008,-0.524 0.008,-0.753 a 32.224,32.224 0 0 0 -8.623,-21.977 z"
     id="path12"
     style="fill:#ffffff"
     inkscape:connector-curvature="0" />
  <path
     d="M 401.382,164.376 A 32.36,32.36 0 0 0 369.059,196.7 c 0,0.236 0,0.482 0,0.719 a 32.325,32.325 0 0 0 64.633,0.041 c 0.007,-0.264 0.006,-0.517 0.006,-0.76 0,-0.809 -0.029,-1.607 -0.086,-2.369 a 32.426,32.426 0 0 0 -32.23,-29.955 z"
     id="path14"
     style="fill:#ffffff"
     inkscape:connector-curvature="0" />
  <path
     d="m 102.778,177.7 a 57.764,57.764 0 0 1 5.089,-8.7 h -10.19 a 56.969,56.969 0 0 1 5.101,8.7 z"
     id="path16"
     style="fill:#ffffff"
     inkscape:connector-curvature="0" />
  <path
     d="m 160.493,168.294 -0.021,-0.012 a 32.349,32.349 0 0 0 -15.4,-3.9 31.919,31.919 0 0 0 -15.4,3.9 l -0.036,0.02 a 32.318,32.318 0 0 0 -16.885,28.4 c 0,0.221 0,0.447 0.006,0.668 a 32.364,32.364 0 0 0 32.121,31.653 C 162.267,229.021 177,214.9 177,197.53 v -0.83 c 0,-0.869 0.17,-1.653 0.117,-2.4 a 31.97,31.97 0 0 0 -16.624,-26.006 z"
     id="path18"
     style="fill:#ffffff"
     inkscape:connector-curvature="0" />
  <path
     d="M 191,191 H 327 V 169 H 182.334 A 46.634,46.634 0 0 1 191,191 Z"
     id="path20"
     style="fill:#ffffff"
     inkscape:connector-curvature="0" />
  <path
     d="M 75,35 H 54.833 a 6.3,6.3 0 0 0 -4.1,1.507 L 13.673,68.219 75,68.037 Z"
     id="path22"
     inkscape:connector-curvature="0"
     style="fill:#ffffff" />
  <path
     d="m 22.405,127.417 0.161,-0.076 A 20.814,20.814 0 0 0 34.809,131 H 35.29 C 39.59,118 52.332,107.611 67.343,107.611 83,107.611 96.189,119 99.905,133 H 139 V 81.853 L 10,82.224 v 21.231 a 29.826,29.826 0 0 0 12.405,23.962 z"
     id="path24"
     inkscape:connector-curvature="0"
     style="fill:#ffffff" />
  <path
     d="m 47.733,141.369 a 19.61,19.61 0 1 0 19.61,-19.609 19.632,19.632 0 0 0 -19.61,19.609 z"
     id="path26"
     inkscape:connector-curvature="0"
     style="fill:#ffffff" />
  <path
     d="M 171.3,38.919 A 121.055,121.055 0 0 0 153,35.547 v 32.266 l 75.244,-0.218 A 180,180 0 0 0 189.826,45.235 141.617,141.617 0 0 0 171.3,38.919 Z"
     id="path28"
     inkscape:connector-curvature="0"
     style="fill:#ffffff" />
  <path
     d="M 225.691,141.035 A 19.609,19.609 0 1 0 245.3,121.427 19.631,19.631 0 0 0 225.691,141.035 Z"
     id="path30"
     inkscape:connector-curvature="0"
     style="fill:#ffffff" />
  <path
     d="M 277.94,133 H 306 V 111.1 A 22.091,22.091 0 0 0 288.113,89.6 l -41.4,-8.065 -93.71,0.271 V 133 h 59.66 a 33.6,33.6 0 0 1 65.28,0 z"
     id="path32"
     inkscape:connector-curvature="0"
     style="fill:#ffffff" />
  <polygon
     points="162,142 112,142 112,174.996 162,174.853 "
     id="polygon34"
     transform="translate(-23,-107)"
     style="fill:#ffffff" />
  <rect
     x="341"
     y="0"
     width="92"
     height="14"
     id="rect36"
     style="fill:#ffffff" />
</svg>
