<?xml version="1.0" encoding="UTF-8" standalone="no"?>
<!-- Generator: Adobe Illustrator 18.1.1, SVG Export Plug-In . SVG Version: 6.00 Build 0)  -->

<svg
   xmlns:dc="http://purl.org/dc/elements/1.1/"
   xmlns:cc="http://creativecommons.org/ns#"
   xmlns:rdf="http://www.w3.org/1999/02/22-rdf-syntax-ns#"
   xmlns:svg="http://www.w3.org/2000/svg"
   xmlns="http://www.w3.org/2000/svg"
   xmlns:sodipodi="http://sodipodi.sourceforge.net/DTD/sodipodi-0.dtd"
   xmlns:inkscape="http://www.inkscape.org/namespaces/inkscape"
   version="1.1"
   id="Capa_1"
   x="0px"
   y="0px"
   viewBox="0 0 41.378 41.378"
   style="enable-background:new 0 0 41.378 41.378;"
   xml:space="preserve"
   sodipodi:docname="car-repair (2).svg"
   inkscape:version="0.92.3 (2405546, 2018-03-11)"><metadata
   id="metadata79"><rdf:RDF><cc:Work
       rdf:about=""><dc:format>image/svg+xml</dc:format><dc:type
         rdf:resource="http://purl.org/dc/dcmitype/StillImage" /><dc:title></dc:title></cc:Work></rdf:RDF></metadata><defs
   id="defs77" /><sodipodi:namedview
   pagecolor="#ffffff"
   bordercolor="#666666"
   borderopacity="1"
   objecttolerance="10"
   gridtolerance="10"
   guidetolerance="10"
   inkscape:pageopacity="0"
   inkscape:pageshadow="2"
   inkscape:window-width="1920"
   inkscape:window-height="1001"
   id="namedview75"
   showgrid="false"
   inkscape:zoom="5.7035142"
   inkscape:cx="-0.70132201"
   inkscape:cy="20.688999"
   inkscape:window-x="-9"
   inkscape:window-y="-9"
   inkscape:window-maximized="1"
   inkscape:current-layer="Capa_1" />
<g
   id="g42"
   style="fill:#ff4821;fill-opacity:1">
	<g
   id="g10"
   style="fill:#ff4821;fill-opacity:1">
		<path
   d="M40.897,16.601c-0.257-2.263-6.35,0-6.35,0l-0.359,3.22c-0.133-0.076-0.268-0.15-0.41-0.213l-1.539-6.715    c-0.564-3.197-2.977-5.552-6.494-5.431h-9.037c-0.055,0.375-0.143,0.738-0.252,1.093h9.899c2.053,0,3.934,1.321,4.448,3.502    l1.653,6.63c-0.104-0.003-0.207-0.013-0.312-0.013H12.978l0.005,6.463h11.873v1.445H12.984l0.001,0.422h11.751v1.448H12.985    l0.004,5.43h12.677v3.439c0,1.397,1.729,2.532,3.86,2.532s3.857-1.134,3.857-2.532v-3.837c1.821-0.688,3.089-2.193,3.089-3.944    v-6.153c0-1.36-0.768-2.571-1.957-3.366l6.382-0.345C40.897,19.676,41.153,18.862,40.897,16.601z M33.586,28.344H26.62v-3.312    h6.966V28.344z"
   id="path2"
   style="fill:#ff4821;fill-opacity:1" />
		<rect
   x="12.808"
   y="27.003"
   width="0.177"
   height="1.448"
   id="rect4"
   style="fill:#ff4821;fill-opacity:1" />
		<rect
   x="12.929"
   y="25.137"
   width="0.055"
   height="1.445"
   id="rect6"
   style="fill:#ff4821;fill-opacity:1" />
		<path
   d="M15.337,6.488C15.331,3.71,13.821,1.29,11.572,0v5.993L7.851,8.141L4.127,5.986V0c-2.245,1.29-3.758,3.71-3.76,6.488    c0,2.913,1.67,5.437,4.104,6.676v0.032v24.649c0,0.976,0.393,1.859,1.033,2.5c0.639,0.64,1.521,1.029,2.499,1.033    c1.944,0,3.524-1.578,3.531-3.532l-0.015-24.839C13.798,11.725,15.334,9.283,15.337,6.488z M8.781,39.409    c-0.526,0.528-1.382,0.528-1.912-0.001c-0.522-0.524-0.521-1.376,0.005-1.904c0.529-0.526,1.382-0.526,1.904-0.004    C9.307,38.029,9.308,38.882,8.781,39.409z"
   id="path8"
   style="fill:#ff4821;fill-opacity:1" />
	</g>
	<g
   id="g12"
   style="fill:#ff4821;fill-opacity:1">
	</g>
	<g
   id="g14"
   style="fill:#ff4821;fill-opacity:1">
	</g>
	<g
   id="g16"
   style="fill:#ff4821;fill-opacity:1">
	</g>
	<g
   id="g18"
   style="fill:#ff4821;fill-opacity:1">
	</g>
	<g
   id="g20"
   style="fill:#ff4821;fill-opacity:1">
	</g>
	<g
   id="g22"
   style="fill:#ff4821;fill-opacity:1">
	</g>
	<g
   id="g24"
   style="fill:#ff4821;fill-opacity:1">
	</g>
	<g
   id="g26"
   style="fill:#ff4821;fill-opacity:1">
	</g>
	<g
   id="g28"
   style="fill:#ff4821;fill-opacity:1">
	</g>
	<g
   id="g30"
   style="fill:#ff4821;fill-opacity:1">
	</g>
	<g
   id="g32"
   style="fill:#ff4821;fill-opacity:1">
	</g>
	<g
   id="g34"
   style="fill:#ff4821;fill-opacity:1">
	</g>
	<g
   id="g36"
   style="fill:#ff4821;fill-opacity:1">
	</g>
	<g
   id="g38"
   style="fill:#ff4821;fill-opacity:1">
	</g>
	<g
   id="g40"
   style="fill:#ff4821;fill-opacity:1">
	</g>
</g>
<g
   id="g44">
</g>
<g
   id="g46">
</g>
<g
   id="g48">
</g>
<g
   id="g50">
</g>
<g
   id="g52">
</g>
<g
   id="g54">
</g>
<g
   id="g56">
</g>
<g
   id="g58">
</g>
<g
   id="g60">
</g>
<g
   id="g62">
</g>
<g
   id="g64">
</g>
<g
   id="g66">
</g>
<g
   id="g68">
</g>
<g
   id="g70">
</g>
<g
   id="g72">
</g>
</svg>