<?xml version="1.0" encoding="UTF-8" standalone="no"?>
<svg
   xmlns:dc="http://purl.org/dc/elements/1.1/"
   xmlns:cc="http://creativecommons.org/ns#"
   xmlns:rdf="http://www.w3.org/1999/02/22-rdf-syntax-ns#"
   xmlns:svg="http://www.w3.org/2000/svg"
   xmlns="http://www.w3.org/2000/svg"
   xmlns:sodipodi="http://sodipodi.sourceforge.net/DTD/sodipodi-0.dtd"
   xmlns:inkscape="http://www.inkscape.org/namespaces/inkscape"
   id="bold"
   enable-background="new 0 0 24 24"
   height="512"
   viewBox="0 0 20 24"
   width="426.66666"
   version="1.1"
   sodipodi:docname="balance-sheet.svg"
   inkscape:version="0.92.3 (2405546, 2018-03-11)">
  <metadata
     id="metadata9">
    <rdf:RDF>
      <cc:Work
         rdf:about="">
        <dc:format>image/svg+xml</dc:format>
        <dc:type
           rdf:resource="http://purl.org/dc/dcmitype/StillImage" />
        <dc:title></dc:title>
      </cc:Work>
    </rdf:RDF>
  </metadata>
  <defs
     id="defs7" />
  <sodipodi:namedview
     pagecolor="#ffffff"
     bordercolor="#666666"
     borderopacity="1"
     objecttolerance="10"
     gridtolerance="10"
     guidetolerance="10"
     inkscape:pageopacity="0"
     inkscape:pageshadow="2"
     inkscape:window-width="1920"
     inkscape:window-height="1001"
     id="namedview5"
     showgrid="false"
     fit-margin-top="0"
     fit-margin-left="0"
     fit-margin-right="0"
     fit-margin-bottom="0"
     inkscape:zoom="0.4609375"
     inkscape:cx="-51.344633"
     inkscape:cy="256"
     inkscape:window-x="-9"
     inkscape:window-y="-9"
     inkscape:window-maximized="1"
     inkscape:current-layer="bold" />
  <path
     d="M 17.25,0 H 2.75 C 1.233,0 0,1.233 0,2.75 v 18.5 C 0,22.767 1.233,24 2.75,24 h 14.5 C 18.767,24 20,22.767 20,21.25 V 2.75 C 20,1.233 18.767,0 17.25,0 Z M 7.78,18.72 c 0.293,0.293 0.293,0.768 0,1.061 C 7.634,19.927 7.442,20 7.25,20 7.058,20 6.866,19.927 6.72,19.78 L 6,19.061 5.28,19.781 C 5.134,19.927 4.942,20 4.75,20 4.558,20 4.366,19.927 4.22,19.78 3.927,19.487 3.927,19.012 4.22,18.719 L 4.939,18 4.219,17.28 c -0.293,-0.293 -0.293,-0.768 0,-1.061 0.293,-0.293 0.768,-0.293 1.061,0 l 0.72,0.72 0.72,-0.72 c 0.293,-0.293 0.768,-0.293 1.061,0 0.293,0.293 0.293,0.768 0,1.061 L 7.061,18 Z M 7.25,12.75 h -0.5 v 0.5 C 6.75,13.664 6.414,14 6,14 5.586,14 5.25,13.664 5.25,13.25 v -0.5 H 4.75 C 4.336,12.75 4,12.414 4,12 4,11.586 4.336,11.25 4.75,11.25 h 0.5 v -0.5 C 5.25,10.336 5.586,10 6,10 c 0.414,0 0.75,0.336 0.75,0.75 v 0.5 h 0.5 C 7.664,11.25 8,11.586 8,12 8,12.414 7.664,12.75 7.25,12.75 Z m 8,7.25 h -2.5 C 12.336,20 12,19.664 12,19.25 12,18.836 12.336,18.5 12.75,18.5 h 2.5 c 0.414,0 0.75,0.336 0.75,0.75 0,0.414 -0.336,0.75 -0.75,0.75 z m 0,-2.5 h -2.5 C 12.336,17.5 12,17.164 12,16.75 12,16.336 12.336,16 12.75,16 h 2.5 c 0.414,0 0.75,0.336 0.75,0.75 0,0.414 -0.336,0.75 -0.75,0.75 z m 0,-4.5 h -2.5 C 12.336,13 12,12.664 12,12.25 12,11.836 12.336,11.5 12.75,11.5 h 2.5 C 15.664,11.5 16,11.836 16,12.25 16,12.664 15.664,13 15.25,13 Z M 17,6.25 C 17,7.215 16.215,8 15.25,8 H 4.75 C 3.785,8 3,7.215 3,6.25 V 4.75 C 3,3.785 3.785,3 4.75,3 h 10.5 C 16.215,3 17,3.785 17,4.75 Z"
     id="path2"
     inkscape:connector-curvature="0"
     style="fill:#ffffff" />
</svg>
