<?xml version="1.0" encoding="UTF-8" standalone="no"?>
<svg
   xmlns:dc="http://purl.org/dc/elements/1.1/"
   xmlns:cc="http://creativecommons.org/ns#"
   xmlns:rdf="http://www.w3.org/1999/02/22-rdf-syntax-ns#"
   xmlns:svg="http://www.w3.org/2000/svg"
   xmlns="http://www.w3.org/2000/svg"
   xmlns:sodipodi="http://sodipodi.sourceforge.net/DTD/sodipodi-0.dtd"
   xmlns:inkscape="http://www.inkscape.org/namespaces/inkscape"
   id="Capa_1"
   enable-background="new 0 0 511.996 511.996"
   height="438.18497"
   viewBox="0 0 511.99728 438.18154"
   width="512.00128"
   version="1.1"
   sodipodi:docname="car-engine.svg"
   inkscape:version="0.92.3 (2405546, 2018-03-11)">
  <metadata
     id="metadata13">
    <rdf:RDF>
      <cc:Work
         rdf:about="">
        <dc:format>image/svg+xml</dc:format>
        <dc:type
           rdf:resource="http://purl.org/dc/dcmitype/StillImage" />
        <dc:title></dc:title>
      </cc:Work>
    </rdf:RDF>
  </metadata>
  <defs
     id="defs11" />
  <sodipodi:namedview
     pagecolor="#ffffff"
     bordercolor="#666666"
     borderopacity="1"
     objecttolerance="10"
     gridtolerance="10"
     guidetolerance="10"
     inkscape:pageopacity="0"
     inkscape:pageshadow="2"
     inkscape:window-width="1920"
     inkscape:window-height="1001"
     id="namedview9"
     showgrid="false"
     fit-margin-top="0"
     fit-margin-left="0"
     fit-margin-right="0"
     fit-margin-bottom="0"
     inkscape:zoom="0.4609375"
     inkscape:cx="-8.6771902"
     inkscape:cy="219.09271"
     inkscape:window-x="-9"
     inkscape:window-y="-9"
     inkscape:window-maximized="1"
     inkscape:current-layer="Capa_1" />
  <path
     d="m 501.08578,100.55653 -89.645,-89.644999 c -13.045,-13.0470002 -33.294,-14.5690002 -48.145,-3.6190002 l -48.426,35.7060002 c -1.758,1.296 -2.863,3.295 -3.027,5.473 -0.164,2.178 0.631,4.319 2.175,5.864 l 11.67,11.67 -51.269,51.268999 h -36.843 l -51.272,-51.271999 11.672,-11.673 c 1.545,-1.545 2.338,-3.686 2.175,-5.864 -0.164,-2.178 -1.27,-4.177 -3.028,-5.473 l -48.424,-35.6980002 c -14.845,-10.953 -35.093,-9.431 -48.144,3.6210002 l -14.195004,14.196 c -2.928,2.928 -2.928,7.676 0,10.604 2.928,2.928 7.676,2.928 10.604,0 l 14.196004,-14.196 c 7.765,-7.765 19.807,-8.672 28.639,-2.156 l 16.112,11.878 -124.674004,124.672999 -11.878,-16.107 c -6.511,-8.843 -5.605,-20.893 2.154,-28.652 l 54.246,-54.244999 c 2.928,-2.928 2.928,-7.675 0,-10.604 -2.927,-2.928 -7.675,-2.928 -10.604,0 l -54.246,54.244999 c -13.0410001,13.041 -14.5660001,33.29 -3.6220001,48.151 l 35.7110001,48.427 c 1.296,1.758 3.295,2.863 5.473,3.027 0.188,0.014 0.375,0.021 0.562,0.021 1.98,0 3.89,-0.785 5.302,-2.196 l 11.671,-11.672 8.707,8.707 c -18.396,15.837 -29.159,38.954 -29.159,63.437 0,40.203 28.693,74.534 67.620004,82.138 4.233,22.432 20.21,40.76 41.285,48.32 v 26.933 c 0,12.317 10.016,22.337 22.328,22.337 9.687,0 17.951,-6.2 21.039,-14.839 h 10.735 c 3.087,8.639 11.346,14.839 21.029,14.839 9.687,0 17.951,-6.2 21.039,-14.839 h 10.738 c 3.087,8.637 11.349,14.836 21.034,14.836 9.685,0 17.946,-6.199 21.033,-14.836 h 10.739 c 3.087,8.637 11.349,14.836 21.033,14.836 12.314,0 22.332,-10.018 22.332,-22.332 v -58.948 c 11.76,-1.624 22.33,-7.006 30.462,-14.897 14.989,-0.94 29.392,-5.88 41.83,-14.374 3.42,-2.336 4.299,-7.001 1.963,-10.421 -2.334,-3.419 -7.001,-4.299 -10.42,-1.963 -6.588,4.499 -13.85,7.773 -21.477,9.743 2.407,-5.404 3.959,-11.264 4.487,-17.417 19.362,-8.51 32.042,-27.627 32.042,-49.115 0,-16.646 -7.645,-32.054 -20.444,-42.136 l 10.664,-10.664 c 15.631,13.012 24.8,32.325 24.8,52.798 0,13.402 -3.879,26.395 -11.217,37.575 -2.272,3.462 -1.308,8.11 2.154,10.383 1.269,0.833 2.696,1.23 4.108,1.23 2.441,0 4.835,-1.191 6.275,-3.384 8.947,-13.631 13.676,-29.47 13.676,-45.803 0,-24.488 -10.764,-47.603 -29.161,-63.432 l 8.712,-8.712 11.671,11.671 c 1.411,1.411 3.321,2.196 5.301,2.196 0.187,0 0.374,-0.007 0.562,-0.021 2.178,-0.164 4.177,-1.269 5.473,-3.027 l 35.706,-48.425 c 10.95,-14.853 9.428,-35.101 -3.619,-48.147 z m -120.89,69.254 c 0,-1.882 0.733,-3.652 2.064,-4.983 l 21.126,-21.126 9.965,9.965 -21.126,21.126 c -1.331,1.331 -3.1,2.064 -4.982,2.064 -1.882,0 -3.652,-0.733 -4.983,-2.064 -1.331,-1.33 -2.064,-3.1 -2.064,-4.982 z m -18.562,-67.86 6.662,6.662 -21.126,21.126 c -1.331,1.331 -3.1,2.064 -4.983,2.064 -1.882,0 -3.651,-0.733 -4.983,-2.064 -2.747,-2.747 -2.747,-7.218 0,-9.965 l 21.126,-21.125999 z m -25.341,-25.340999 11.434,11.434 -21.126,21.125999 c -8.594,8.594 -8.594,22.578 0,31.172 4.163,4.163 9.699,6.456 15.586,6.456 5.888,0 11.423,-2.293 15.586,-6.456 l 21.126,-21.126 13.883,13.883 -21.126,21.126 c -4.163,4.163 -6.456,9.699 -6.456,15.586 0,5.887 2.293,11.423 6.456,15.586 4.163,4.163 9.698,6.456 15.586,6.456 5.888,0 11.423,-2.293 15.586,-6.456 l 21.126,-21.126 11.434,11.434 -48.163,48.164 -99.096,-99.095 z m -31.561,280.820999 h 8.142 v 50.916 h -8.142 z m -51.469,-14.996 42.266,-41.493 c -0.022,0.64 -0.049,1.28 -0.049,1.925 0,15.566 6.563,29.619 17.054,39.568 z m -54.139,45.865 c 2.815,-1.097 5.533,-2.384 8.139,-3.853 v 23.9 h -8.139 z m 52.804,-30.869 h 8.141 v 50.916 h -8.141 z m -12.303,-22.622 c 0.191,-2.007 0.298,-4.038 0.298,-6.094 0,-35.254 -28.682,-63.936 -63.936,-63.936 -1.381,0 -2.748,0.059 -4.108,0.146 l 41.803,-40.877 c 1.564,21.986 19.939,39.4 42.316,39.4 23.4,0 42.437,-19.037 42.437,-42.437 0,-1.002 -0.047,-1.992 -0.116,-2.976 l 43.006,30.977 c -11.548,1.862 -21.897,7.353 -29.825,15.273 l 0.009,-0.046 z m -132.907,-107.786 11.477,11.477 14.058,43.64 c -4.397,4.132 -8.212,8.872 -11.305,14.093 -17.376,-3.858 -30.387004,-19.601 -30.387004,-37.778 10e-4,-12.592 6.077,-24.208 16.157004,-31.432 z m 149.28,-33.453 c 15.131,0 27.441,12.31 27.441,27.441 0,15.131 -12.31,27.441 -27.441,27.441 -15.131,0 -27.441,-12.31 -27.441,-27.441 0,-15.131 12.31,-27.441 27.441,-27.441 z m 117.171,59.898 c 0,0 -90.646,-65.586 -91.702,-66.381 -7.099,-5.343 -15.921,-8.513 -25.469,-8.513 -11.042,0 -21.11,4.243 -28.667,11.179 l -82.96,81.096 -11.055,-34.317 104.261,-104.261 h 36.843 l 104.26,104.26 -5.46,16.959 c -0.017,-0.007 -0.034,-0.014 -0.051,-0.022 z m -264.558,-109.765 21.126,21.126 c 1.331,1.331 2.064,3.1 2.064,4.982 0,1.882 -0.733,3.652 -2.064,4.982 -1.331,1.331 -3.1,2.064 -4.983,2.064 -1.882,0 -3.651,-0.733 -4.982,-2.064 l -21.126004,-21.126 z m -58.717004,37.512 -9.656,-13.094 127.880004,-127.879999 13.091,9.65 z m 38.149,-16.943 21.125004,21.125 c 4.163,4.163 9.698,6.456 15.586,6.456 5.888,0 11.423,-2.293 15.586,-6.456 4.163,-4.163 6.456,-9.699 6.456,-15.586 0,-5.887 -2.293,-11.423 -6.456,-15.586 l -21.126,-21.126 0.174,-0.174 13.709,-13.709 21.126,21.126 c 4.163,4.163 9.698,6.456 15.586,6.456 5.888,0 11.423,-2.293 15.586,-6.456 8.594,-8.594 8.594,-22.578 0,-31.172 l -21.126,-21.125999 11.434,-11.434 48.164,48.163999 -99.096,99.095 -48.162004,-48.162 z m 65.623004,-65.623999 21.126,21.125999 c 2.747,2.747 2.747,7.218 0,9.965 -1.331,1.331 -3.101,2.064 -4.983,2.064 -1.882,0 -3.652,-0.733 -4.983,-2.064 l -21.125,-21.126 z M 60.549776,258.45353 c 0,-20.468 9.168,-39.783 24.797,-52.803 l 10.666,10.666 c -12.801,10.083 -20.448,25.491 -20.448,42.137 0,13.459 5.023,26.342 14.144,36.276 6.844,7.454 15.535004,12.756 25.095004,15.43 -1.441,4.741 -2.344,9.712 -2.639,14.845 -29.955004,-7.682 -51.615004,-34.9 -51.615004,-66.551 z m 66.497004,70.261 c 0,-26.985 21.955,-48.94 48.94,-48.94 26.985,0 48.94,21.954 48.94,48.94 0,26.986 -21.955,48.94 -48.94,48.94 -26.985,0 -48.94,-21.954 -48.94,-48.94 z m 49.74,94.471 c -4.042,0 -7.332,-3.293 -7.332,-7.341 v -23.525 c 2.148,0.219 4.326,0.331 6.531,0.331 2.76,0 5.473,-0.195 8.142,-0.536 v 23.73 c 0,4.048 -3.293,7.341 -7.341,7.341 z m 52.803,0 c -4.042,0 -7.331,-3.293 -7.331,-7.341 v -42.973 l 14.673,-14.405 v 57.377 c 0,4.049 -3.293,7.342 -7.342,7.342 z m 52.811,-0.003 c -4.045,0 -7.336,-3.291 -7.336,-7.336 v -58.416 h 14.671 v 58.416 c 0,4.045 -3.29,7.336 -7.335,7.336 z m 52.805,0 c -4.045,0 -7.335,-3.291 -7.335,-7.336 v -58.416 h 14.671 v 58.416 c 0,4.045 -3.291,7.336 -7.336,7.336 z m 14.834,-80.752 c -21.815,0 -39.564,-17.748 -39.564,-39.564 0,-21.815 17.748,-39.564 39.564,-39.564 21.815,0 39.564,17.748 39.564,39.564 0,21.816 -17.749,39.564 -39.564,39.564 z m 71.389,-83.976 c 0,13.55 -6.997,25.795 -18.097,32.754 -2.508,-11.473 -8.633,-21.605 -17.121,-29.138 l 7.588,-23.569 11.477,-11.477 c 10.078,7.221 16.153,18.837 16.153,31.43 z m 40.673,-77.243 -131.316,-131.315999 13.093,-9.654 127.877,127.876999 z m 30.533,-41.41 -11.879,16.11 -124.671,-124.670999 16.11,-11.879 c 8.836,-6.515 20.881,-5.609 28.642,2.153 l 89.645,89.644999 c 7.762,7.762 8.667,19.808 2.153,28.642 z"
     id="path2"
     inkscape:connector-curvature="0" />
  <path
     d="m 198.61778,328.71453 c 0,-12.479 -10.152,-22.631 -22.631,-22.631 -12.479,0 -22.631,10.152 -22.631,22.631 0,12.479 10.152,22.631 22.631,22.631 12.479,0 22.631,-10.152 22.631,-22.631 z m -30.266,0 c 0,-4.21 3.425,-7.635 7.635,-7.635 4.21,0 7.635,3.425 7.635,7.635 0,4.21 -3.425,7.635 -7.635,7.635 -4.21,0 -7.635,-3.425 -7.635,-7.635 z"
     id="path4"
     inkscape:connector-curvature="0" />
  <path
     d="m 350.03978,280.23553 c -12.479,0 -22.631,10.152 -22.631,22.631 0,12.479 10.152,22.631 22.631,22.631 12.479,0 22.631,-10.152 22.631,-22.631 0,-12.479 -10.152,-22.631 -22.631,-22.631 z m 0,30.266 c -4.21,0 -7.635,-3.425 -7.635,-7.635 0,-4.21 3.425,-7.635 7.635,-7.635 4.21,0 7.635,3.425 7.635,7.635 0,4.21 -3.425,7.635 -7.635,7.635 z"
     id="path6"
     inkscape:connector-curvature="0" />
</svg>
