<?xml version="1.0" encoding="UTF-8" standalone="no"?>
<svg
   xmlns:dc="http://purl.org/dc/elements/1.1/"
   xmlns:cc="http://creativecommons.org/ns#"
   xmlns:rdf="http://www.w3.org/1999/02/22-rdf-syntax-ns#"
   xmlns:svg="http://www.w3.org/2000/svg"
   xmlns="http://www.w3.org/2000/svg"
   xmlns:sodipodi="http://sodipodi.sourceforge.net/DTD/sodipodi-0.dtd"
   xmlns:inkscape="http://www.inkscape.org/namespaces/inkscape"
   height="415.21347pt"
   viewBox="1 -48 511.99997 415.21347"
   width="511.00076pt"
   version="1.1"
   id="svg16"
   sodipodi:docname="car (1).svg"
   inkscape:version="0.92.3 (2405546, 2018-03-11)">
  <metadata
     id="metadata22">
    <rdf:RDF>
      <cc:Work
         rdf:about="">
        <dc:format>image/svg+xml</dc:format>
        <dc:type
           rdf:resource="http://purl.org/dc/dcmitype/StillImage" />
        <dc:title></dc:title>
      </cc:Work>
    </rdf:RDF>
  </metadata>
  <defs
     id="defs20" />
  <sodipodi:namedview
     pagecolor="#ffffff"
     bordercolor="#666666"
     borderopacity="1"
     objecttolerance="10"
     gridtolerance="10"
     guidetolerance="10"
     inkscape:pageopacity="0"
     inkscape:pageshadow="2"
     inkscape:window-width="1920"
     inkscape:window-height="1001"
     id="namedview18"
     showgrid="false"
     fit-margin-top="0"
     fit-margin-left="0"
     fit-margin-right="0"
     fit-margin-bottom="0"
     inkscape:zoom="0.34637965"
     inkscape:cx="-10.217291"
     inkscape:cy="278.15634"
     inkscape:window-x="-9"
     inkscape:window-y="-9"
     inkscape:window-maximized="1"
     inkscape:current-layer="svg16" />
  <path
     d="m 105.13672,280.8209 c -14.378908,0 -26.035158,11.65625 -26.035158,26.03516 0,14.3789 11.65625,26.03515 26.035158,26.03515 14.375,0 26.03125,-11.65625 26.03125,-26.03515 0,-14.37891 -11.65234,-26.03516 -26.03125,-26.03516 z m 0,34.71485 c -4.79297,0 -8.679689,-3.88672 -8.679689,-8.67969 0,-4.79297 3.886719,-8.67578 8.679689,-8.67578 4.79297,0 8.67578,3.88281 8.67578,8.67578 0,4.79297 -3.88281,8.67969 -8.67578,8.67969 z m 0,0"
     id="path2"
     inkscape:connector-curvature="0" />
  <path
     d="m 374.15234,280.8209 c -14.3789,0 -26.03515,11.65625 -26.03515,26.03516 0,14.3789 11.65625,26.03515 26.03515,26.03515 14.37891,0 26.03516,-11.65625 26.03516,-26.03515 0,-14.37891 -11.65625,-26.03516 -26.03516,-26.03516 z m 0,34.71485 c -4.79297,0 -8.67968,-3.88672 -8.67968,-8.67969 0,-4.79297 3.88672,-8.67578 8.67968,-8.67578 4.79297,0 8.67969,3.88281 8.67969,8.67578 0,4.79297 -3.88672,8.67969 -8.67969,8.67969 z m 0,0"
     id="path4"
     inkscape:connector-curvature="0" />
  <path
     d="M 486.96484,3.1295003 H 296.05078 v -8.679687 c 0,-19.1718753 -15.53906,-34.7109383 -34.71094,-34.7109383 h -43.39062 c -4.79297,0 -8.67969,3.882813 -8.67969,8.675781 h -26.03125 c -4.79297,0 -8.67969,3.886719 -8.67969,8.679688 0,4.792969 3.88672,8.675781 8.67969,8.675781 h 26.03125 v 52.070313 h -26.03125 c -4.79297,0 -8.67969,3.882812 -8.67969,8.675781 0,4.792965 3.88672,8.679685 8.67969,8.679685 h 26.03125 c 0,4.79297 3.88672,8.67578 8.67969,8.67578 h 43.39062 c 19.16797,0 34.71094,-15.539059 34.71094,-34.710934 v -8.675781 h 190.91406 c 4.79297,0 8.67969,3.882813 8.67969,8.675781 v 216.94921 c 0,4.79297 -3.88672,8.67969 -8.67969,8.67969 h -17.35547 v -17.35547 c -0.0273,-23.95312 -19.4375,-43.36328 -43.39062,-43.39062 h -28.08203 l -19.08985,-69.875 C 374.91797,109.08653 361.22656,98.621684 345.59375,98.586534 H 175.42578 c -14.58594,0.0273 -27.60937,9.148436 -32.62109,22.847646 L 115.90625,195.42247 42.550781,213.7584 C 23.21875,218.5709 9.660156,235.93809 9.679688,255.85606 v 42.32422 c 0,14.3789 11.652343,26.03125 26.03125,26.03125 h 11.28125 c 9.636718,32.13672 43.5,50.375 75.636722,40.73828 19.5625,-5.86719 34.86718,-21.17188 40.73437,-40.73828 h 152.64844 c 9.63672,32.13672 43.49609,50.375 75.63281,40.73828 19.5625,-5.86719 34.87109,-21.17188 40.73828,-40.73828 h 11.19141 c 14.3789,0 26.03515,-11.65625 26.03515,-26.03125 v -26.03516 h 17.35547 C 501.34375,272.14512 513,260.48887 513,246.10996 V 29.16075 C 513,14.781844 501.34375,3.1295003 486.96484,3.1295003 Z M 278.69531,29.16075 c 0,9.585938 -7.76953,17.355469 -17.35547,17.355469 h -34.71093 v -69.421875 h 34.71093 c 9.58594,0 17.35547,7.769531 17.35547,17.3554693 z m 66.89844,86.78125 c 7.82422,0 14.67969,5.24218 16.73828,12.78906 l 17.80859,65.3125 H 287.37109 V 115.942 Z M 243.98438,194.04356 V 115.942 h 26.03125 v 78.10156 z m -84.85547,-66.6836 c 2.50781,-6.83984 9.01172,-11.39843 16.29687,-11.41796 h 51.20313 v 78.10156 h -91.7461 z m -53.99219,222.88672 c -23.964845,0 -43.390626,-19.42578 -43.390626,-43.39062 0,-23.96485 19.425781,-43.39063 43.390626,-43.39063 23.96094,0 43.38672,19.42578 43.38672,43.39063 -0.0273,23.95312 -19.4375,43.36328 -43.38672,43.39062 z m 269.01562,0 c -23.96484,0 -43.39062,-19.42578 -43.39062,-43.39062 0,-23.96485 19.42578,-43.39063 43.39062,-43.39063 23.96485,0 43.39063,19.42578 43.39063,43.39063 -0.0312,23.95312 -19.4375,43.36328 -43.39063,43.39062 z m 78.10157,-52.0664 c 0,4.78906 -3.88672,8.67578 -8.67578,8.67578 h -8.67969 c 0,-33.55078 -27.19531,-60.7461 -60.7461,-60.7461 -33.55078,0 -60.74609,27.19532 -60.74609,60.7461 H 165.88281 c 0,-33.55078 -27.19922,-60.7461 -60.74609,-60.7461 -33.550782,0 -60.746095,27.19532 -60.746095,60.7461 h -8.679687 c -4.792969,0 -8.675782,-3.88672 -8.675782,-8.67578 v -42.32422 c -0.0039,-11.94531 8.125,-22.36328 19.714844,-25.26172 l 76.80859,-19.19531 h 302.66016 c 14.37891,0 26.03516,11.65625 26.03516,26.03515 z m 0,0"
     id="path6"
     inkscape:connector-curvature="0" />
  <path
     d="m 85.238281,-11.686906 c -3.390625,-3.386719 -8.882812,-3.386719 -12.273437,0 L 46.933594,14.34825 c -3.390625,3.390625 -3.386719,8.882813 0,12.273438 1.628906,1.625 3.832031,2.539062 6.132812,2.539062 H 66.832031 L 55.609375,40.383406 c -3.445313,3.328126 -3.542969,8.820313 -0.210937,12.269528 3.328124,3.44922 8.820312,3.54297 12.269531,0.21485 0.07422,-0.0703 0.144531,-0.14453 0.214843,-0.21485 l 26.03125,-26.035152 c 3.390626,-3.386719 3.390626,-8.882813 0,-12.273438 -1.628906,-1.625 -3.832031,-2.539062 -6.132812,-2.539062 H 74.015625 L 85.238281,0.58653228 c 3.386719,-3.39062598 3.386719,-8.88281298 0,-12.27343828 z m 0,0"
     id="path8"
     inkscape:connector-curvature="0" />
  <path
     d="m 123.11719,51.934184 c 1.0625,0.44922 2.20312,0.67969 3.35547,0.67579 3.49609,0 6.65234,-2.097661 8.0039,-5.320318 3.5625,-8.488281 5.39063,-17.601562 5.3711,-26.804687 -0.0312,-24.8867187 -13.34766,-47.863281 -34.92969,-60.261719 -4.08594,-2.5 -9.429689,-1.214844 -11.929689,2.871094 -2.503906,4.085938 -1.21875,9.429688 2.867188,11.929688 0.140625,0.08594 0.285156,0.167968 0.429687,0.246093 16.191404,9.300781 26.183594,26.5390633 26.207034,45.214844 0.0156,6.894531 -1.35156,13.726563 -4.01953,20.085937 -1.85157,4.421876 0.22656,9.507813 4.64453,11.363278 z m 0,0"
     id="path10"
     inkscape:connector-curvature="0" />
  <path
     d="m 29.125,52.192004 c -2.921875,-3.800785 -8.371094,-4.511722 -12.171875,-1.589848 -3.800781,2.917968 -4.511719,8.367188 -1.589844,12.167968 21.339844,27.79297 60.042969,35.32422 90.249999,17.56641 4.1875,-2.33203 5.69141,-7.61719 3.35547,-11.80469 -2.33203,-4.1875 -7.61719,-5.69141 -11.800781,-3.35937 -0.125,0.0703 -0.25,0.14453 -0.371094,0.21875 -22.660156,13.3164 -51.691406,7.65625 -67.691406,-13.19922 z m 0,0"
     id="path12"
     inkscape:connector-curvature="0" />
  <path
     d="m 18.355469,20.484969 c -0.0039,-26.2734367 19.566406,-48.433594 45.636719,-51.679687 4.753906,-0.585938 8.132812,-4.914063 7.550781,-9.664063 -0.46875,-4.664063 -4.628907,-8.066406 -9.292969,-7.597656 -0.125,0.01172 -0.25,0.02734 -0.375,0.04687 C 27.105469,-44.097062 1,-14.554094 1,20.484969 v 0.710937 c 0.027344,4.625 3.796875,8.351563 8.421875,8.328126 0.085937,0 0.171875,-0.0039 0.257813,-0.0078 4.859374,-0.164063 8.707031,-4.167969 8.675781,-9.03125 z m 0,0"
     id="path14"
     inkscape:connector-curvature="0" />
</svg>
