<?xml version="1.0" encoding="UTF-8" standalone="no"?>
<!-- Generator: Adobe Illustrator 19.0.0, SVG Export Plug-In . SVG Version: 6.00 Build 0)  -->

<svg
   xmlns:dc="http://purl.org/dc/elements/1.1/"
   xmlns:cc="http://creativecommons.org/ns#"
   xmlns:rdf="http://www.w3.org/1999/02/22-rdf-syntax-ns#"
   xmlns:svg="http://www.w3.org/2000/svg"
   xmlns="http://www.w3.org/2000/svg"
   xmlns:sodipodi="http://sodipodi.sourceforge.net/DTD/sodipodi-0.dtd"
   xmlns:inkscape="http://www.inkscape.org/namespaces/inkscape"
   version="1.1"
   id="Capa_1"
   x="0px"
   y="0px"
   viewBox="0 0 512 512"
   style="enable-background:new 0 0 512 512;"
   xml:space="preserve"
   sodipodi:docname="at.svg"
   inkscape:version="0.92.3 (2405546, 2018-03-11)"><metadata
   id="metadata39"><rdf:RDF><cc:Work
       rdf:about=""><dc:format>image/svg+xml</dc:format><dc:type
         rdf:resource="http://purl.org/dc/dcmitype/StillImage" /><dc:title></dc:title></cc:Work></rdf:RDF></metadata><defs
   id="defs37" /><sodipodi:namedview
   pagecolor="#ffffff"
   bordercolor="#666666"
   borderopacity="1"
   objecttolerance="10"
   gridtolerance="10"
   guidetolerance="10"
   inkscape:pageopacity="0"
   inkscape:pageshadow="2"
   inkscape:window-width="1920"
   inkscape:window-height="1001"
   id="namedview35"
   showgrid="false"
   inkscape:zoom="0.4609375"
   inkscape:cx="-8.6779661"
   inkscape:cy="256"
   inkscape:window-x="-9"
   inkscape:window-y="-9"
   inkscape:window-maximized="1"
   inkscape:current-layer="Capa_1" />
<path
   d="M371.496,485.52C327.36,505.384,289.104,512,236.872,512C114.76,512,7.352,424.456,7.352,280.28  C7.352,130.208,116.224,0,282.488,0c129.472,0,222.16,89.016,222.16,212.6c0,107.4-60.32,175.08-139.768,175.08  c-34.576,0-59.584-17.656-63.264-56.648h-1.472c-22.8,37.52-55.904,56.648-94.896,56.648c-47.816,0-82.392-35.312-82.392-95.64  c0-89.744,66.208-171.4,172.136-171.4c32.368,0,69.144,8.096,87.544,18.392l-22.064,136.096  c-7.352,43.392-2.208,63.264,18.392,63.992c31.632,0.736,71.352-39.728,71.352-124.32c0-95.632-61.792-169.936-175.824-169.936  c-112.544,0-211.128,88.28-211.128,228.784c0,122.848,78.712,192.736,188.328,192.736c37.52,0,77.248-8.088,106.664-23.544  L371.496,485.52z M306.024,181.704c-5.888-1.472-13.248-2.944-22.808-2.944c-48.544,0-86.808,47.816-86.808,104.456  c0,27.952,12.512,45.608,36.784,45.608c27.216,0,55.912-34.576,62.528-77.24L306.024,181.704z"
   id="path2"
   style="fill:#1bace8;fill-opacity:1" />
<g
   id="g4">
</g>
<g
   id="g6">
</g>
<g
   id="g8">
</g>
<g
   id="g10">
</g>
<g
   id="g12">
</g>
<g
   id="g14">
</g>
<g
   id="g16">
</g>
<g
   id="g18">
</g>
<g
   id="g20">
</g>
<g
   id="g22">
</g>
<g
   id="g24">
</g>
<g
   id="g26">
</g>
<g
   id="g28">
</g>
<g
   id="g30">
</g>
<g
   id="g32">
</g>
</svg>