<?xml version="1.0" encoding="UTF-8" standalone="no"?>
<svg
   xmlns:dc="http://purl.org/dc/elements/1.1/"
   xmlns:cc="http://creativecommons.org/ns#"
   xmlns:rdf="http://www.w3.org/1999/02/22-rdf-syntax-ns#"
   xmlns:svg="http://www.w3.org/2000/svg"
   xmlns="http://www.w3.org/2000/svg"
   xmlns:sodipodi="http://sodipodi.sourceforge.net/DTD/sodipodi-0.dtd"
   xmlns:inkscape="http://www.inkscape.org/namespaces/inkscape"
   height="512pt"
   viewBox="0 0 512 512"
   width="512pt"
   version="1.1"
   id="svg6"
   sodipodi:docname="gallery_icon.svg"
   inkscape:version="0.92.3 (2405546, 2018-03-11)">
  <metadata
     id="metadata12">
    <rdf:RDF>
      <cc:Work
         rdf:about="">
        <dc:format>image/svg+xml</dc:format>
        <dc:type
           rdf:resource="http://purl.org/dc/dcmitype/StillImage" />
        <dc:title></dc:title>
      </cc:Work>
    </rdf:RDF>
  </metadata>
  <defs
     id="defs10" />
  <sodipodi:namedview
     pagecolor="#ffffff"
     bordercolor="#666666"
     borderopacity="1"
     objecttolerance="10"
     gridtolerance="10"
     guidetolerance="10"
     inkscape:pageopacity="0"
     inkscape:pageshadow="2"
     inkscape:window-width="1920"
     inkscape:window-height="1001"
     id="namedview8"
     showgrid="false"
     inkscape:zoom="0.24444902"
     inkscape:cx="1197.6974"
     inkscape:cy="-45.963436"
     inkscape:window-x="-9"
     inkscape:window-y="-9"
     inkscape:window-maximized="1"
     inkscape:current-layer="svg6" />
  <path
     d="m 412.03125,352.05859 c 0,33.06641 -26.90234,59.97266 -59.97266,59.97266 H 75.117188 c -33.066407,0 -59.96875,-26.90625 -59.96875,-59.97266 V 311.07617 75.117188 c 0,-33.066407 26.902343,-59.96875 59.96875,-59.96875 H 313.21875 V 0 H 75.117188 C 33.699219,0 0,33.699219 0,75.117188 V 352.05859 c 0,31.25391 19.191406,58.10157 46.40625,69.40625 7.71875,20.00782 23.738281,35.86719 43.8125,43.36719 C 101.57031,493.19531 129.125,512 159.94531,512 h 276.91406 c 41.42188,0 75.1211,-33.69922 75.1211,-75.12109 V 234.26953 h -15.14844 v 202.60938 c 0,33.07031 -26.90234,59.97265 -59.97266,59.97265 H 159.94531 c -20.75781,0 -39.66406,-10.68359 -50.50781,-27.61718 2.34375,0.21875 4.70703,0.34375 7.07422,0.34375 h 276.93359 c 41.42188,0 75.1211,-33.69922 75.1211,-75.1211 V 117.52344 c 0,-2.96485 -0.17969,-5.90625 -0.51954,-8.82422 17.64063,10.67969 28.78516,29.87891 28.78516,51.25781 v 74.3125 h 15.14844 v -74.3125 c 0,-31.60937 -19.46094,-59.41406 -48.79297,-70.351561 C 455.69141,70.957031 440.69531,55.796875 422.12891,48.09375 411.25,19.992188 383.95312,0 352.05859,0 h -38.83984 v 15.148438 h 38.83984 c 33.07032,0 59.97266,26.902343 59.97266,59.972656 V 275.96484 Z m 41.39062,42.39844 c 0,33.07031 -26.90625,59.97266 -59.97656,59.97266 H 116.51172 c -6.1875,0 -12.29688,-0.94532 -18.156251,-2.80469 -0.0625,-0.0195 -0.128907,-0.0391 -0.195313,-0.0586 -13.449218,-4.3125 -24.835937,-13.26563 -32.28125,-24.97657 3.03125,0.375 6.109375,0.58985 9.238282,0.58985 H 352.05859 c 41.41797,0 75.11719,-33.69922 75.11719,-75.1211 V 75.117188 c 0,-2.488282 -0.12891,-4.953126 -0.36719,-7.382813 10.75782,7.257813 19.1211,17.921875 23.375,30.316406 2.14844,6.246099 3.23438,12.796879 3.23438,19.472659 v 276.93359 z"
     id="path2"
     inkscape:connector-curvature="0"
     sodipodi:nodetypes="sssscssccsssccsssccssscsssscsccsccsccsscscsscccssssccscc"
     style="fill:#ffffff" />
</svg>
