<?xml version="1.0" encoding="UTF-8" standalone="no"?>
<svg
   xmlns:dc="http://purl.org/dc/elements/1.1/"
   xmlns:cc="http://creativecommons.org/ns#"
   xmlns:rdf="http://www.w3.org/1999/02/22-rdf-syntax-ns#"
   xmlns:svg="http://www.w3.org/2000/svg"
   xmlns="http://www.w3.org/2000/svg"
   xmlns:sodipodi="http://sodipodi.sourceforge.net/DTD/sodipodi-0.dtd"
   xmlns:inkscape="http://www.inkscape.org/namespaces/inkscape"
   id="Capa_1"
   enable-background="new 0 0 512 512"
   height="512"
   viewBox="0 0 512 512"
   width="512"
   version="1.1"
   sodipodi:docname="packages.svg"
   inkscape:version="0.92.3 (2405546, 2018-03-11)">
  <metadata
     id="metadata19">
    <rdf:RDF>
      <cc:Work
         rdf:about="">
        <dc:format>image/svg+xml</dc:format>
        <dc:type
           rdf:resource="http://purl.org/dc/dcmitype/StillImage" />
        <dc:title></dc:title>
      </cc:Work>
    </rdf:RDF>
  </metadata>
  <defs
     id="defs17" />
  <sodipodi:namedview
     pagecolor="#ffffff"
     bordercolor="#666666"
     borderopacity="1"
     objecttolerance="10"
     gridtolerance="10"
     guidetolerance="10"
     inkscape:pageopacity="0"
     inkscape:pageshadow="2"
     inkscape:window-width="1920"
     inkscape:window-height="1001"
     id="namedview15"
     showgrid="false"
     inkscape:zoom="0.4609375"
     inkscape:cx="-8.6779661"
     inkscape:cy="256"
     inkscape:window-x="-9"
     inkscape:window-y="-9"
     inkscape:window-maximized="1"
     inkscape:current-layer="Capa_1" />
  <g
     id="g12"
     transform="translate(0,-34)"
     style="fill:#ffffff">
    <path
       d="M 494.403,394.459 H 486.8 V 283.116 c 0,-6.863 -5.583,-12.446 -12.446,-12.446 h -39.975 v -58.361 c 0,-6.862 -5.583,-12.445 -12.446,-12.445 H 407.57 c -4.143,0 -7.5,3.357 -7.5,7.5 0,4.143 3.357,7.5 7.5,7.5 h 11.81 v 55.807 h -0.624 c -18.331,0 -140.128,0 -155.255,0 v -55.807 h 56.246 v 22.727 c 0,6.99 5.687,12.677 12.677,12.677 h 18.033 c 6.99,0 12.677,-5.687 12.677,-12.677 v -22.727 h 14.45 c 4.143,0 7.5,-3.357 7.5,-7.5 0,-4.143 -3.357,-7.5 -7.5,-7.5 -10.7,0 -17.933,0 -28.644,0 V 55.188 c 0,-8.598 -6.995,-15.593 -15.593,-15.593 -22.799,0 -132.149,0 -154.692,0 -8.599,0 -15.594,6.995 -15.594,15.593 V 82.32 c 0,4.143 3.357,7.5 7.5,7.5 4.143,0 7.5,-3.357 7.5,-7.5 V 55.188 c 0,-0.327 0.267,-0.593 0.594,-0.593 h 53.043 V 83.53 c 0,8.157 6.636,14.793 14.793,14.793 h 19.02 c 8.157,0 14.794,-6.636 14.794,-14.793 V 54.595 h 53.043 c 0.327,0 0.593,0.266 0.593,0.593 v 144.676 c -54.461,0 -108.581,0 -155.879,0 v -87.556 c 0,-4.143 -3.357,-7.5 -7.5,-7.5 -4.143,0 -7.5,3.357 -7.5,7.5 v 87.556 c -8.606,0 -60.095,0 -72.993,0 -6.862,0 -12.445,5.583 -12.445,12.446 v 58.36 H 37.646 c -6.862,0 -12.445,5.583 -12.445,12.446 V 394.459 H 17.597 C 7.894,394.459 0,402.353 0,412.056 v 24.762 c 0,4.143 3.357,7.5 7.5,7.5 h 14.82 v 10.958 c 0,9.445 7.685,17.13 17.13,17.13 h 77.565 c 9.445,0 17.13,-7.685 17.13,-17.13 v -10.958 h 65.942 v 10.958 c 0,9.445 7.685,17.13 17.13,17.13 h 23.789 c 4.143,0 7.5,-3.357 7.5,-7.5 0,-4.143 -3.357,-7.5 -7.5,-7.5 h -23.789 c -1.175,0 -2.13,-0.955 -2.13,-2.13 v -10.958 h 81.825 v 10.958 c 0,1.175 -0.955,2.13 -2.13,2.13 h -23.789 c -4.143,0 -7.5,3.357 -7.5,7.5 0,4.143 3.357,7.5 7.5,7.5 h 23.789 c 9.445,0 17.13,-7.685 17.13,-17.13 v -10.958 h 65.942 v 10.958 c 0,9.445 7.685,17.13 17.13,17.13 h 77.565 c 9.445,0 17.13,-7.685 17.13,-17.13 V 444.318 H 504.5 c 4.143,0 7.5,-3.357 7.5,-7.5 v -24.762 c 0,-9.703 -7.894,-17.597 -17.597,-17.597 z M 265.304,83.322 H 246.698 V 54.595 h 18.606 z M 471.8,394.459 H 337.934 V 285.67 h 45.545 v 30.854 c 0,6.604 5.372,11.976 11.976,11.976 h 18.825 c 6.604,0 11.976,-5.372 11.976,-11.976 V 285.67 h 45.545 V 394.459 Z M 411.255,285.67 v 27.829 H 398.479 V 285.67 Z M 322.934,394.459 H 189.067 V 285.67 h 45.545 v 30.854 c 0,6.604 5.372,11.976 11.976,11.976 h 18.825 c 6.604,0 11.976,-5.372 11.976,-11.976 V 285.67 h 45.545 z M 262.389,285.67 v 27.829 H 249.613 V 285.67 Z m 85.744,-50.403 h -13.387 v -20.403 h 13.387 z M 163.868,214.863 h 13.386 v 20.403 h -13.386 z m -71.246,0 h 56.246 v 22.727 c 0,6.99 5.687,12.677 12.676,12.677 h 18.033 c 6.99,0 12.677,-5.687 12.677,-12.677 V 214.863 H 248.5 v 55.807 c -55.453,0 -108.533,0 -155.878,0 z m 8.124,70.807 h 12.776 v 27.829 h -12.776 z m -60.545,0 h 45.545 v 30.854 c 0,6.604 5.372,11.976 11.976,11.976 h 18.824 c 6.604,0 11.977,-5.372 11.977,-11.976 V 285.67 h 45.545 V 394.459 H 40.201 Z m 78.945,169.605 c 0,1.175 -0.955,2.13 -2.13,2.13 H 39.45 c -1.175,0 -2.13,-0.955 -2.13,-2.13 v -10.958 h 81.825 v 10.958 z m 355.535,0 c 0,1.175 -0.955,2.13 -2.13,2.13 h -77.565 c -1.175,0 -2.13,-0.955 -2.13,-2.13 v -10.958 h 81.825 z M 497,429.317 c -160.224,0 -320.489,0 -482,0 v -17.262 c 0,-1.432 1.165,-2.597 2.597,-2.597 h 476.807 c 1.432,0 2.597,1.165 2.597,2.597 v 17.262 z"
       id="path2"
       inkscape:connector-curvature="0"
       style="fill:#ffffff" />
    <path
       d="m 297.885,182.16 c 4.143,0 7.5,-3.357 7.5,-7.5 v -5.244 c 0.935,0.395 1.917,0.608 2.899,0.608 2.348,0 4.659,-1.099 6.122,-3.158 2.398,-3.377 1.604,-8.06 -1.772,-10.458 l -10.406,-7.391 c -2.602,-1.846 -6.084,-1.846 -8.686,0 l -10.406,7.391 c -3.377,2.398 -4.171,7.081 -1.772,10.458 2.074,2.919 5.853,3.903 9.021,2.568 v 5.226 c 0,4.143 3.357,7.5 7.5,7.5 z"
       id="path4"
       inkscape:connector-curvature="0"
       style="fill:#ffffff" />
    <path
       d="m 154.734,359.716 -10.406,-7.39 c -2.602,-1.846 -6.084,-1.846 -8.686,0 l -10.405,7.39 c -3.377,2.398 -4.171,7.081 -1.772,10.458 1.463,2.06 3.774,3.158 6.122,3.158 0.982,0 1.964,-0.213 2.898,-0.608 v 5.245 c 0,4.143 3.357,7.5 7.5,7.5 4.143,0 7.5,-3.357 7.5,-7.5 v -5.228 c 3.169,1.335 6.948,0.352 9.021,-2.567 2.399,-3.378 1.605,-8.06 -1.772,-10.458 z"
       id="path6"
       inkscape:connector-curvature="0"
       style="fill:#ffffff" />
    <path
       d="m 275.252,359.716 c -3.377,2.398 -4.171,7.081 -1.772,10.458 1.463,2.06 3.774,3.158 6.122,3.158 0.982,0 1.964,-0.213 2.898,-0.608 v 5.244 c 0,4.143 3.357,7.5 7.5,7.5 4.143,0 7.5,-3.357 7.5,-7.5 v -5.228 c 3.169,1.335 6.948,0.352 9.021,-2.567 2.398,-3.378 1.604,-8.06 -1.772,-10.458 l -10.406,-7.39 c -2.602,-1.846 -6.084,-1.846 -8.686,0 z"
       id="path8"
       inkscape:connector-curvature="0"
       style="fill:#ffffff" />
    <path
       d="m 421.494,370.174 c 1.463,2.06 3.774,3.158 6.122,3.158 0.982,0 1.964,-0.213 2.898,-0.608 v 5.245 c 0,4.143 3.357,7.5 7.5,7.5 4.143,0 7.5,-3.357 7.5,-7.5 v -5.228 c 3.169,1.335 6.948,0.352 9.021,-2.567 2.398,-3.378 1.604,-8.06 -1.772,-10.458 l -10.406,-7.39 c -2.602,-1.846 -6.084,-1.846 -8.686,0 l -10.405,7.39 c -3.376,2.398 -4.17,7.081 -1.772,10.458 z"
       id="path10"
       inkscape:connector-curvature="0"
       style="fill:#ffffff" />
  </g>
</svg>
