<?xml version="1.0" encoding="UTF-8" standalone="no"?>
<svg
   xmlns:dc="http://purl.org/dc/elements/1.1/"
   xmlns:cc="http://creativecommons.org/ns#"
   xmlns:rdf="http://www.w3.org/1999/02/22-rdf-syntax-ns#"
   xmlns:svg="http://www.w3.org/2000/svg"
   xmlns="http://www.w3.org/2000/svg"
   xmlns:sodipodi="http://sodipodi.sourceforge.net/DTD/sodipodi-0.dtd"
   xmlns:inkscape="http://www.inkscape.org/namespaces/inkscape"
   id="Layer_1"
   height="512"
   viewBox="0 0 512 512"
   width="512"
   data-name="Layer 1"
   version="1.1"
   sodipodi:docname="disc-brake.svg"
   inkscape:version="0.92.3 (2405546, 2018-03-11)">
  <metadata
     id="metadata33">
    <rdf:RDF>
      <cc:Work
         rdf:about="">
        <dc:format>image/svg+xml</dc:format>
        <dc:type
           rdf:resource="http://purl.org/dc/dcmitype/StillImage" />
        <dc:title></dc:title>
      </cc:Work>
    </rdf:RDF>
  </metadata>
  <defs
     id="defs31" />
  <sodipodi:namedview
     pagecolor="#ffffff"
     bordercolor="#666666"
     borderopacity="1"
     objecttolerance="10"
     gridtolerance="10"
     guidetolerance="10"
     inkscape:pageopacity="0"
     inkscape:pageshadow="2"
     inkscape:window-width="1920"
     inkscape:window-height="1001"
     id="namedview29"
     showgrid="false"
     inkscape:zoom="0.4609375"
     inkscape:cx="-8.6779661"
     inkscape:cy="256"
     inkscape:window-x="-9"
     inkscape:window-y="-9"
     inkscape:window-maximized="1"
     inkscape:current-layer="Layer_1" />
  <path
     d="m429.9 79.778a257.443 257.443 0 0 0 -119.254-68.278 14.01 14.01 0 0 0 -10.923 1.7 14.446 14.446 0 0 0 -6.471 9.186l-1.826 8.457a233.594 233.594 0 0 0 -210.478 65.309 238.316 238.316 0 0 0 0 335.315 234.28 234.28 0 0 0 333.011 0 238.426 238.426 0 0 0 66.107-204.367l8.2-1.5a14.323 14.323 0 0 0 11.413-17.077 259.676 259.676 0 0 0 -69.779-128.745zm-132.6 73.079 16.653-42.563a166.986 166.986 0 0 1 85.739 86.62l-42.577 16.906a122.275 122.275 0 0 0 -59.807-60.963zm58.223 110.143a109.523 109.523 0 1 1 -109.523-109.523 109.647 109.647 0 0 1 109.523 109.523zm-69.323-114.681a121.511 121.511 0 1 0 75.238 76.7l42.621-16.919a167.4 167.4 0 0 1 5.206 18.1 14.214 14.214 0 0 0 13.863 11.1 14.465 14.465 0 0 0 2.6-.238l18.214-3.337a210.939 210.939 0 0 1 2.058 29.275c0 112.292-89.271 203.648-199 203.648s-199-91.356-199-203.648 89.271-203.648 199-203.648a196.212 196.212 0 0 1 37.49 3.612l-4.748 21.993a14.362 14.362 0 0 0 10.358 16.905c4.3 1.149 8.532 2.494 12.711 3.987zm119.244 274.694a222.283 222.283 0 0 1 -315.981 0 226.319 226.319 0 0 1 0-318.407 221.654 221.654 0 0 1 199.431-62.036l-1.87 8.659a208.219 208.219 0 0 0 -40.024-3.877c-56.386 0-109.389 22.449-149.247 63.21-39.822 40.725-61.753 94.862-61.753 152.438s21.931 111.713 61.753 152.438c39.858 40.761 92.861 63.21 149.247 63.21s109.389-22.449 149.247-63.21c39.822-40.725 61.753-94.862 61.753-152.438a222.954 222.954 0 0 0 -2.24-31.446l12.5-2.291a226.423 226.423 0 0 1 -62.816 193.75zm82.162-210.213a2.3 2.3 0 0 1 -1.5.993l-62.537 11.459a2.245 2.245 0 0 1 -2.6-1.715 179.009 179.009 0 0 0 -127.763-133.267 2.375 2.375 0 0 1 -1.735-2.781l13.511-62.576a2.354 2.354 0 0 1 1.063-1.518 2.088 2.088 0 0 1 1.649-.265 247.442 247.442 0 0 1 180.254 187.906 2.3 2.3 0 0 1 -.342 1.764z"
     id="path2"
     style="fill:#ffffff;fill-opacity:1" />
  <path
     d="m414.207 95.9a22.756 22.756 0 0 0 -32.333 0 23.087 23.087 0 0 0 0 32.446 22.629 22.629 0 0 0 16.166 6.741 22.629 22.629 0 0 0 16.166-6.741 23.087 23.087 0 0 0 .001-32.446zm-8.516 23.992a10.757 10.757 0 0 1 -15.3 0 11.056 11.056 0 0 1 0-15.538 10.757 10.757 0 0 1 15.3 0 11.056 11.056 0 0 1 0 15.54z"
     id="path4"
     style="fill:#ffffff;fill-opacity:1" />
  <path
     d="m335.435 45.639a22.626 22.626 0 0 0 -16.167 6.742 23.087 23.087 0 0 0 0 32.445 22.755 22.755 0 0 0 32.334 0 23.087 23.087 0 0 0 0-32.445 22.628 22.628 0 0 0 -16.167-6.742zm7.651 30.733a10.756 10.756 0 0 1 -15.3 0 11.057 11.057 0 0 1 0-15.537 10.756 10.756 0 0 1 15.3 0 11.057 11.057 0 0 1 0 15.537z"
     id="path6"
     style="fill:#ffffff;fill-opacity:1" />
  <path
     d="m441.247 152.223a22.629 22.629 0 0 0 -16.167 6.741 23.089 23.089 0 0 0 0 32.446 22.757 22.757 0 0 0 32.334 0 23.089 23.089 0 0 0 0-32.446 22.631 22.631 0 0 0 -16.167-6.741zm7.651 30.733a10.758 10.758 0 0 1 -15.3 0 11.058 11.058 0 0 1 0-15.538 10.758 10.758 0 0 1 15.3 0 11.058 11.058 0 0 1 .002 15.538z"
     id="path8"
     style="fill:#ffffff;fill-opacity:1" />
  <path
     d="m309.8 184.054a16.727 16.727 0 0 0 -11.949 4.982 17.043 17.043 0 0 0 0 23.951 16.822 16.822 0 0 0 23.9 0 17.042 17.042 0 0 0 0-23.95 16.725 16.725 0 0 0 -11.951-4.983zm3.435 20.479a4.823 4.823 0 0 1 -6.869 0 5.011 5.011 0 0 1 0-7.042 4.822 4.822 0 0 1 6.868 0 5.012 5.012 0 0 1 -.003 7.042z"
     id="path10"
     style="fill:#ffffff;fill-opacity:1" />
  <path
     d="m185.11 309.649a16.725 16.725 0 0 0 -11.949 4.982 17.043 17.043 0 0 0 0 23.951 16.726 16.726 0 0 0 11.95 4.983 16.731 16.731 0 0 0 11.951-4.982 17.045 17.045 0 0 0 0-23.952 16.727 16.727 0 0 0 -11.952-4.982zm3.435 20.478a4.82 4.82 0 0 1 -6.869 0 5.01 5.01 0 0 1 0-7.041 4.82 4.82 0 0 1 6.867 0 5.01 5.01 0 0 1 .002 7.041z"
     id="path12"
     style="fill:#ffffff;fill-opacity:1" />
  <path
     d="m185.11 217.97a16.728 16.728 0 0 0 11.951-4.983 17.042 17.042 0 0 0 0-23.95 16.823 16.823 0 0 0 -23.9 0 17.043 17.043 0 0 0 0 23.951 16.726 16.726 0 0 0 11.949 4.982zm-3.433-20.479a4.82 4.82 0 0 1 6.867 0 5.011 5.011 0 0 1 0 7.042 4.823 4.823 0 0 1 -6.869 0 5.011 5.011 0 0 1 .002-7.042z"
     id="path14"
     style="fill:#ffffff;fill-opacity:1" />
  <path
     d="m309.8 309.649a16.727 16.727 0 0 0 -11.949 4.982 17.043 17.043 0 0 0 0 23.951 16.823 16.823 0 0 0 23.9 0 17.044 17.044 0 0 0 0-23.951 16.725 16.725 0 0 0 -11.951-4.982zm3.435 20.479a4.822 4.822 0 0 1 -6.869 0 5.01 5.01 0 0 1 0-7.041 4.822 4.822 0 0 1 6.868 0 5.012 5.012 0 0 1 -.003 7.041z"
     id="path16"
     style="fill:#ffffff;fill-opacity:1" />
  <path
     d="m247.454 191.958a16.958 16.958 0 1 0 -16.879-16.958 16.937 16.937 0 0 0 16.879 16.958zm0-21.915a4.958 4.958 0 1 1 -4.879 4.957 4.924 4.924 0 0 1 4.879-4.957z"
     id="path18"
     style="fill:#ffffff;fill-opacity:1" />
  <path
     d="m247.454 335.661a16.958 16.958 0 1 0 16.878 16.958 16.938 16.938 0 0 0 -16.878-16.958zm0 21.915a4.958 4.958 0 1 1 4.878-4.957 4.924 4.924 0 0 1 -4.878 4.957z"
     id="path20"
     style="fill:#ffffff;fill-opacity:1" />
  <path
     d="m176.166 263.81a16.879 16.879 0 1 0 -16.879 16.957 16.938 16.938 0 0 0 16.879-16.957zm-16.879 4.957a4.958 4.958 0 1 1 4.879-4.957 4.924 4.924 0 0 1 -4.879 4.957z"
     id="path22"
     style="fill:#ffffff;fill-opacity:1" />
  <path
     d="m318.742 263.81a16.879 16.879 0 1 0 16.878-16.958 16.937 16.937 0 0 0 -16.878 16.958zm16.878-4.958a4.958 4.958 0 1 1 -4.878 4.958 4.925 4.925 0 0 1 4.878-4.958z"
     id="path24"
     style="fill:#ffffff;fill-opacity:1" />
  <path
     d="m178.233 263a67.767 67.767 0 1 0 67.767-67.767 67.844 67.844 0 0 0 -67.767 67.767zm123.534 0a55.767 55.767 0 1 1 -55.767-55.767 55.83 55.83 0 0 1 55.767 55.767z"
     id="path26"
     style="fill:#ffffff;fill-opacity:1" />
</svg>
