<?xml version="1.0" encoding="UTF-8" standalone="no"?>
<!-- Generator: Adobe Illustrator 19.0.0, SVG Export Plug-In . SVG Version: 6.00 Build 0)  -->

<svg
   xmlns:dc="http://purl.org/dc/elements/1.1/"
   xmlns:cc="http://creativecommons.org/ns#"
   xmlns:rdf="http://www.w3.org/1999/02/22-rdf-syntax-ns#"
   xmlns:svg="http://www.w3.org/2000/svg"
   xmlns="http://www.w3.org/2000/svg"
   xmlns:sodipodi="http://sodipodi.sourceforge.net/DTD/sodipodi-0.dtd"
   xmlns:inkscape="http://www.inkscape.org/namespaces/inkscape"
   version="1.1"
   id="Layer_1"
   x="0px"
   y="0px"
   viewBox="0 0 480.52099 498.052"
   xml:space="preserve"
   width="493.97803"
   height="512"
   sodipodi:docname="marking.svg"
   inkscape:version="0.92.3 (2405546, 2018-03-11)"><metadata
   id="metadata29"><rdf:RDF><cc:Work
       rdf:about=""><dc:format>image/svg+xml</dc:format><dc:type
         rdf:resource="http://purl.org/dc/dcmitype/StillImage" /><dc:title></dc:title></cc:Work></rdf:RDF></metadata><defs
   id="defs27" /><sodipodi:namedview
   pagecolor="#ffffff"
   bordercolor="#666666"
   borderopacity="1"
   objecttolerance="10"
   gridtolerance="10"
   guidetolerance="10"
   inkscape:pageopacity="0"
   inkscape:pageshadow="2"
   inkscape:window-width="1920"
   inkscape:window-height="1001"
   id="namedview25"
   showgrid="false"
   fit-margin-top="0"
   fit-margin-left="0"
   fit-margin-right="0"
   fit-margin-bottom="0"
   inkscape:zoom="0.4609375"
   inkscape:cx="-17.688431"
   inkscape:cy="256"
   inkscape:window-x="-9"
   inkscape:window-y="-9"
   inkscape:window-maximized="1"
   inkscape:current-layer="Layer_1" />
<g
   id="g22"
   transform="translate(-8.765)"
   style="fill:#ffffff">
	<path
   d="M 337.021,37.84 H 299.496 C 299.496,12.09 283.796,0 266.67,0 H 120.974 C 104.351,0 88.137,11.519 88.137,37.84 H 47.602 C 26.186,37.84 8.765,55.27 8.765,76.686 v 382.529 c 0,21.417 17.42,38.837 38.837,38.837 h 289.419 c 21.417,0 38.837,-17.42 38.837,-38.837 V 76.686 C 375.857,55.27 358.437,37.84 337.021,37.84 Z M 118.645,32.826 c 0,-1.281 1.047,-2.318 2.329,-2.318 H 266.67 c 1.281,0 2.318,1.037 2.318,2.318 v 40.545 c 0,1.281 -1.037,2.318 -2.318,2.318 H 120.974 c -1.281,0 -2.329,-1.037 -2.329,-2.318 V 32.826 Z m 226.704,426.389 c 0,4.597 -3.732,8.329 -8.329,8.329 H 47.602 c -4.586,0 -8.329,-3.732 -8.329,-8.329 V 76.686 c 0,-4.597 3.742,-8.339 8.329,-8.339 h 40.535 c 0,25.221 15.161,37.85 32.837,37.85 H 266.67 c 17.232,0 32.826,-12.143 32.826,-37.85 h 37.525 c 4.597,0 8.329,3.742 8.329,8.339 v 382.529 z"
   id="path2"
   inkscape:connector-curvature="0"
   style="fill:#ffffff" />
	<path
   d="m 293.842,121.147 c -20.358,20.358 -14.284,14.284 -30.366,30.365 l -13.037,-13.037 c -14.236,-14.259 -35.851,7.311 -21.569,21.569 l 23.827,23.827 c 5.968,5.967 15.631,5.938 21.569,0 l 41.145,-41.145 c 14.248,-14.248 -7.281,-35.843 -21.569,-21.579 z"
   id="path4"
   inkscape:connector-curvature="0"
   style="fill:#ffffff" />
	<path
   d="m 80.002,167.763 h 84.405 c 20.153,0 20.185,-30.508 0,-30.508 H 80.002 c -20.146,0 -20.196,30.508 0,30.508 z"
   id="path6"
   inkscape:connector-curvature="0"
   style="fill:#ffffff" />
	<path
   d="m 293.842,201.779 c -22.298,22.286 -15.539,15.529 -30.366,30.355 -8.467,-8.468 -8.188,-8.188 -13.037,-13.037 -14.244,-14.244 -35.842,7.307 -21.569,21.579 l 23.827,23.816 c 6.017,6.018 15.682,5.888 21.569,0 l 41.145,-41.145 c 14.252,-14.25 -7.296,-35.841 -21.569,-21.568 z"
   id="path8"
   inkscape:connector-curvature="0"
   style="fill:#ffffff" />
	<path
   d="m 80.002,248.385 h 84.405 c 20.153,0 20.185,-30.508 0,-30.508 H 80.002 c -20.146,0 -20.197,30.508 0,30.508 z"
   id="path10"
   inkscape:connector-curvature="0"
   style="fill:#ffffff" />
	<path
   d="m 293.842,282.401 c -22.298,22.286 -15.552,15.542 -30.366,30.355 -8.332,-8.32 -5.36,-5.35 -13.037,-13.027 -14.232,-14.255 -35.841,7.297 -21.569,21.569 l 23.827,23.817 c 5.962,5.961 15.598,5.971 21.569,0 l 41.145,-41.145 c 14.247,-14.246 -7.292,-35.845 -21.569,-21.569 z"
   id="path12"
   inkscape:connector-curvature="0"
   style="fill:#ffffff" />
	<path
   d="m 80.002,329.018 h 84.405 c 20.149,0 20.185,-30.508 0,-30.508 H 80.002 c -20.222,0 -20.131,30.508 0,30.508 z"
   id="path14"
   inkscape:connector-curvature="0"
   style="fill:#ffffff" />
	<path
   d="m 404.372,145.095 0.61,225.698 27.203,93.558 c 4.238,14.602 25.047,14.614 29.288,0 l 27.203,-93.558 0.61,-225.698 c 0,-28.05 -21.228,-42.08 -42.457,-42.083 -21.228,-0.002 -42.457,14.023 -42.457,42.083 z m 54.406,206.183 H 434.88 V 191.284 h 23.898 z m -5.064,30.508 -6.885,23.674 -6.885,-23.674 z M 434.88,145.095 c 0,-15.788 23.898,-15.797 23.898,0 v 15.681 H 434.88 Z"
   id="path16"
   inkscape:connector-curvature="0"
   style="fill:#ffffff" />
	<path
   d="m 80.002,399.064 h 113.815 c 20.222,0 20.131,-30.508 0,-30.508 H 80.002 c -20.146,0 -20.197,30.508 0,30.508 z"
   id="path18"
   inkscape:connector-curvature="0"
   style="fill:#ffffff" />
	<path
   d="M 272.141,419.87 H 80.002 c -20.18,0 -20.156,30.508 0,30.508 h 192.139 c 20.18,0 20.155,-30.508 0,-30.508 z"
   id="path20"
   inkscape:connector-curvature="0"
   style="fill:#ffffff" />
</g>















</svg>