<?xml version="1.0" encoding="UTF-8" standalone="no"?>
<!-- Generator: Adobe Illustrator 19.2.1, SVG Export Plug-In . SVG Version: 6.00 Build 0)  -->

<svg
   xmlns:dc="http://purl.org/dc/elements/1.1/"
   xmlns:cc="http://creativecommons.org/ns#"
   xmlns:rdf="http://www.w3.org/1999/02/22-rdf-syntax-ns#"
   xmlns:svg="http://www.w3.org/2000/svg"
   xmlns="http://www.w3.org/2000/svg"
   xmlns:sodipodi="http://sodipodi.sourceforge.net/DTD/sodipodi-0.dtd"
   xmlns:inkscape="http://www.inkscape.org/namespaces/inkscape"
   version="1.1"
   id="レイヤー_1"
   x="0px"
   y="0px"
   viewBox="0 0 766.00001 765.99999"
   xml:space="preserve"
   sodipodi:docname="Subaru_logo.svg"
   width="766"
   height="766"
   inkscape:version="0.92.3 (2405546, 2018-03-11)"><metadata
   id="metadata23"><rdf:RDF><cc:Work
       rdf:about=""><dc:format>image/svg+xml</dc:format><dc:type
         rdf:resource="http://purl.org/dc/dcmitype/StillImage" /><dc:title></dc:title></cc:Work></rdf:RDF></metadata><defs
   id="defs21">
	
	
	
	
	
	
	
</defs><sodipodi:namedview
   pagecolor="#ffffff"
   bordercolor="#666666"
   borderopacity="1"
   objecttolerance="10"
   gridtolerance="10"
   guidetolerance="10"
   inkscape:pageopacity="0"
   inkscape:pageshadow="2"
   inkscape:window-width="1920"
   inkscape:window-height="1001"
   id="namedview19"
   showgrid="false"
   fit-margin-top="0"
   fit-margin-left="0"
   fit-margin-right="0"
   fit-margin-bottom="0"
   inkscape:zoom="0.36103268"
   inkscape:cx="49.61812"
   inkscape:cy="51.531564"
   inkscape:window-x="-9"
   inkscape:window-y="-9"
   inkscape:window-maximized="1"
   inkscape:current-layer="レイヤー_1" />
<path
   inkscape:connector-curvature="0"
   id="path14"
   d="m 383.01125,159.0497 c 95.85973,0 198.62928,19.5366 280.42177,71.439 C 716.55088,264.4752 766,315.9725 766,383.09 c 0,78.3714 -66.9375,135.3605 -131.06156,168.7168 -76.30065,39.5007 -166.46596,55.1435 -251.94969,55.1435 -95.83722,0 -198.4042,-19.3115 -280.2192,-71.4165 C 49.651694,501.5474 0,450.0501 0,383.09 0,304.3586 66.757444,247.572 131.06156,214.1933 207.58728,174.715 297.55002,159.0497 383.01125,159.0497 Z m -0.81027,23.813 c -89.12996,0 -185.19225,16.6781 -262.52825,63.2688 -48.638848,29.1023 -96.66999,74.9052 -96.66999,135.7431 0,71.4616 65.114385,121.4734 123.31895,150.193 72.04672,35.1794 156.29254,48.864 235.87929,48.864 89.31002,0 185.39482,-16.7232 262.73082,-63.3138 48.43628,-29.3049 96.67,-74.8827 96.67,-135.7207 0,-71.619 -64.93433,-121.6984 -123.31896,-150.1704 -72.06922,-35.2469 -156.31504,-48.864 -236.08186,-48.864 z M 45.8029,332.4255 l 146.72682,-25.0284 44.15985,-95.8597 43.97978,95.8597 146.70432,25.0284 -146.70432,25.2535 -43.97978,96.0623 -44.15985,-96.0623 z m 322.55593,73.0371 64.70925,-11.3664 19.334,-43.3495 19.334,43.3495 64.73176,11.3664 -64.73176,11.1862 -19.334,43.3721 -19.334,-43.3721 z M 502.27885,289.8862 566.9881,278.7 l 19.334,-43.5297 19.334,43.5297 64.70925,11.1862 -64.70925,11.3888 -19.334,43.3721 -19.35651,-43.3721 z m -69.21077,205.1565 64.50669,-11.1863 19.334,-43.5521 19.53656,43.5521 64.70926,11.1863 -64.70926,11.3888 -19.53656,43.3721 -19.334,-43.3721 z m -198.80933,15.6652 64.70925,-11.1862 19.53657,-43.5972 19.31149,43.5972 64.73176,11.1862 -64.73176,11.3889 -19.31149,43.3721 -19.53657,-43.3721 z m 325.41439,-107.0234 64.50669,-11.4114 19.33399,-43.3495 19.53657,43.3495 64.70926,11.4114 -64.70926,11.1862 -19.55907,43.3046 -19.334,-43.3271 z"
   style="fill:#ffffff;stroke-width:0.22507566" />
</svg>