<?xml version="1.0" standalone="no"?>
<!DOCTYPE svg PUBLIC "-//W3C//DTD SVG 20010904//EN"
 "http://www.w3.org/TR/2001/REC-SVG-20010904/DTD/svg10.dtd">
<svg version="1.0" xmlns="http://www.w3.org/2000/svg"
 width="360.000000pt" height="360.000000pt" viewBox="0 0 360.000000 360.000000"
 preserveAspectRatio="xMidYMid meet">
<metadata>
Created by potrace 1.11, written by Peter Selinger 2001-2013
</metadata>
<g transform="translate(0.000000,360.000000) scale(0.100000,-0.100000)"
fill="#000000" stroke="none">
<path d="M40 2631 c0 -96 34 -120 267 -191 92 -29 245 -76 339 -106 95 -30
175 -54 178 -54 5 0 -79 176 -89 188 -2 2 -25 9 -51 16 -27 8 -180 52 -341
100 -160 47 -294 86 -297 86 -3 0 -6 -18 -6 -39z"/>
<path d="M3210 2575 c-173 -52 -325 -97 -338 -100 -16 -4 -35 -32 -71 -103
l-49 -98 131 42 c73 23 173 54 222 69 50 14 101 31 115 36 14 5 34 11 45 14
39 8 170 53 205 70 19 9 43 28 53 41 24 33 31 126 8 123 -3 0 -148 -43 -321
-94z"/>
<path d="M2605 2375 c-115 -58 -278 -128 -412 -175 l-92 -32 34 -37 c64 -68
96 -106 167 -198 39 -51 72 -93 74 -93 5 0 96 137 149 225 51 84 189 355 183
358 -1 1 -48 -21 -103 -48z"/>
<path d="M880 2414 c0 -11 111 -225 149 -288 23 -38 41 -70 41 -72 0 -3 32
-53 71 -111 70 -103 72 -106 88 -86 110 141 161 203 208 253 36 40 50 61 42
64 -175 57 -280 99 -447 177 -124 59 -152 70 -152 63z"/>
<path d="M190 2360 c0 -85 44 -122 204 -170 50 -16 145 -45 211 -65 66 -20
154 -47 195 -60 41 -13 96 -29 121 -37 l45 -15 -30 56 c-17 31 -40 74 -51 96
-14 28 -30 43 -55 52 -44 15 -623 183 -633 183 -4 0 -7 -18 -7 -40z"/>
<path d="M3280 2370 c-277 -82 -422 -124 -486 -142 l-70 -19 -52 -98 -51 -99
92 30 c51 16 188 59 305 94 366 111 378 119 373 237 -1 32 7 32 -111 -3z"/>
<path d="M1735 2268 c-189 -157 -380 -389 -517 -628 -48 -84 -118 -223 -118
-234 0 -3 35 13 78 34 185 91 363 156 515 189 91 20 100 20 169 6 172 -36 369
-106 546 -194 45 -22 82 -38 82 -36 0 36 -237 438 -292 497 -7 7 -39 45 -71
84 -99 123 -307 324 -335 324 -4 0 -29 -19 -57 -42z"/>
<path d="M358 2125 c-3 -3 -3 -26 -2 -52 6 -88 31 -101 394 -212 162 -49 315
-97 339 -106 24 -8 46 -14 47 -12 2 2 -25 46 -61 99 -62 91 -67 96 -117 111
-29 8 -173 52 -320 96 -292 88 -273 83 -280 76z"/>
<path d="M3180 2121 c-8 -5 -55 -21 -105 -35 -272 -77 -491 -147 -505 -163 -9
-10 -43 -56 -74 -101 -49 -71 -54 -83 -34 -76 12 4 167 51 342 105 175 55 339
110 363 125 48 28 63 55 63 115 0 41 -15 50 -50 30z"/>
<path d="M677 1792 c-6 -11 13 -86 26 -102 22 -29 72 -57 154 -89 110 -42 174
-63 178 -59 14 16 75 119 75 127 0 6 -19 15 -42 21 -62 16 -361 100 -375 105
-7 2 -14 1 -16 -3z"/>
<path d="M2725 1749 c-191 -55 -249 -72 -253 -74 -4 -3 45 -86 66 -114 l19
-23 114 41 c133 49 185 76 210 111 20 27 37 111 23 109 -5 -1 -85 -23 -179
-50z"/>
<path d="M1665 1525 c-60 -13 -121 -27 -134 -33 -24 -9 -24 -9 30 -63 30 -30
93 -87 142 -128 87 -73 87 -73 113 -56 59 38 264 223 264 237 0 7 -23 14 -157
43 -62 14 -121 25 -130 24 -10 0 -67 -11 -128 -24z"/>
<path d="M50 1163 c13 -21 34 -58 48 -83 43 -78 77 -125 92 -128 10 -2 39 38
83 112 66 113 76 136 59 136 -15 0 -38 -32 -83 -117 -24 -46 -49 -83 -55 -83
-6 0 -32 39 -59 88 -55 98 -67 112 -90 112 -15 0 -14 -5 5 -37z"/>
<path d="M505 1191 c-101 -25 -137 -128 -67 -193 101 -94 312 -44 312 74 0 50
-24 86 -72 108 -40 18 -124 23 -173 11z m167 -42 c15 -11 28 -26 29 -32 1 -7
2 -24 3 -39 7 -69 -66 -116 -158 -103 -64 10 -96 42 -96 96 0 26 7 53 18 66
35 45 148 51 204 12z"/>
<path d="M830 1073 c0 -116 1 -123 20 -123 18 0 20 7 20 55 l0 55 77 -4 c86
-4 103 -16 103 -73 0 -26 4 -33 20 -33 28 0 28 62 -1 91 l-21 21 21 22 c29 31
27 70 -5 91 -20 13 -52 18 -130 19 l-104 3 0 -124z m204 78 c14 -15 15 -24 7
-40 -12 -22 -52 -32 -121 -28 -41 2 -45 4 -48 30 -6 51 1 57 76 57 55 0 72 -4
86 -19z"/>
<path d="M1256 1185 c-57 -20 -78 -46 -83 -102 -4 -40 0 -52 20 -75 70 -79
250 -74 306 8 77 112 -85 225 -243 169z m137 -16 c53 -14 77 -44 77 -95 0 -86
-94 -126 -200 -86 -35 13 -50 33 -55 74 -6 45 21 88 65 104 44 16 66 16 113 3z"/>
<path d="M1594 1186 c-3 -7 -4 -62 -2 -122 2 -89 6 -109 18 -109 12 0 16 18
18 93 1 50 5 92 9 92 6 0 68 -52 158 -134 28 -25 56 -46 63 -46 6 0 15 0 19 0
3 0 6 48 5 107 0 139 0 133 -17 133 -17 0 -17 2 -17 -107 1 -46 -3 -83 -7 -83
-5 0 -37 26 -72 58 -135 124 -165 144 -175 118z"/>
<path d="M2194 1082 c-37 -64 -69 -120 -71 -124 -2 -5 4 -8 15 -8 12 0 28 17
46 50 l27 50 74 0 74 0 27 -50 c20 -37 33 -50 50 -50 21 0 17 9 -48 113 -83
132 -79 126 -106 132 -18 3 -31 -14 -88 -113z m136 0 c0 -5 -22 -9 -50 -9 -54
-1 -54 0 -12 65 l15 23 23 -35 c13 -19 24 -39 24 -44z"/>
<path d="M2517 1194 c-14 -14 -7 -164 8 -194 29 -57 180 -69 245 -20 21 16 24
28 29 105 6 89 -2 122 -27 107 -8 -6 -13 -34 -13 -83 0 -41 -3 -84 -6 -96 -7
-29 -61 -47 -120 -40 -67 7 -77 23 -83 129 -5 84 -14 110 -33 92z"/>
<path d="M2884 1188 c-5 -8 38 -12 84 -8 22 1 22 0 22 -114 0 -109 1 -116 20
-116 19 0 20 7 20 114 l0 114 43 0 c63 0 71 1 63 10 -10 10 -246 10 -252 0z"/>
<path d="M3267 1179 c-65 -34 -88 -107 -52 -163 54 -82 233 -87 306 -10 36 38
34 103 -5 143 -49 51 -177 66 -249 30z m185 -20 c56 -25 68 -102 23 -149 -48
-50 -165 -50 -210 0 -40 44 -19 131 38 155 35 16 109 13 149 -6z"/>
</g>
</svg>
