<?xml version="1.0" encoding="UTF-8" standalone="no"?>
<svg
   xmlns:dc="http://purl.org/dc/elements/1.1/"
   xmlns:cc="http://creativecommons.org/ns#"
   xmlns:rdf="http://www.w3.org/1999/02/22-rdf-syntax-ns#"
   xmlns:svg="http://www.w3.org/2000/svg"
   xmlns="http://www.w3.org/2000/svg"
   xmlns:sodipodi="http://sodipodi.sourceforge.net/DTD/sodipodi-0.dtd"
   xmlns:inkscape="http://www.inkscape.org/namespaces/inkscape"
   inkscape:version="1.0 (4035a4fb49, 2020-05-01)"
   sodipodi:docname="logo.svg"
   viewBox="0 0 467.41165 228.58202"
   height="228.58202"
   width="467.41165"
   id="svg847"
   version="1.1">
  <metadata
     id="metadata853">
    <rdf:RDF>
      <cc:Work
         rdf:about="">
        <dc:format>image/svg+xml</dc:format>
        <dc:type
           rdf:resource="http://purl.org/dc/dcmitype/StillImage" />
        <dc:title></dc:title>
      </cc:Work>
    </rdf:RDF>
  </metadata>
  <defs
     id="defs851" />
  <sodipodi:namedview
     inkscape:current-layer="g855"
     inkscape:window-maximized="1"
     inkscape:window-y="-11"
     inkscape:window-x="-11"
     inkscape:cy="115.59184"
     inkscape:cx="232.36218"
     inkscape:zoom="1.53125"
     showgrid="false"
     id="namedview849"
     inkscape:window-height="1346"
     inkscape:window-width="2160"
     inkscape:pageshadow="2"
     inkscape:pageopacity="0"
     guidetolerance="10"
     gridtolerance="10"
     objecttolerance="10"
     borderopacity="1"
     bordercolor="#666666"
     pagecolor="#ffffff" />
  <g
     transform="translate(-7.6378157,-124.40816)"
     id="g855"
     inkscape:label="Image"
     inkscape:groupmode="layer">
    <g
       style="fill:#ffffff;fill-opacity:1"
       transform="translate(2)"
       id="g1523">
      <path
         style="fill:#ffffff;fill-opacity:1;stroke-width:0.653061"
         d="M 101.87755,173.61341 C 73.79458,164.87686 27.079359,150.00781 23.072876,148.53058 13.173709,144.88064 8.9261595,141.99264 7.0988898,137.66953 5.9573042,134.96867 5.1062949,124.40816 6.0302341,124.40816 c 1.316144,0 91.3821999,26.33761 91.9261349,26.88154 0.835422,0.83542 10.778321,21.95033 10.778321,22.88902 0,1.46487 -0.45077,1.4277 -6.85714,-0.56531 z"
         id="path1435" />
      <path
         style="fill:#ffffff;fill-opacity:1;stroke-width:0.653061"
         d="m 123.10204,209.87939 c -1.97551,-0.70976 -18.63841,-5.97186 -37.028665,-11.69355 -18.390257,-5.72169 -37.096233,-11.75072 -41.568836,-13.39785 -15.384223,-5.66554 -18.100597,-8.40252 -18.594632,-18.73569 -0.18942,-3.96188 -0.04786,-5.72577 0.459516,-5.72577 1.464804,0 71.132252,20.38028 82.791307,24.21949 l 5.97707,1.96819 2.4429,4.70208 c 1.34359,2.58614 4.16412,7.84058 6.26783,11.67653 3.69606,6.73946 4.37164,8.42575 3.33514,8.32477 -0.26938,-0.0263 -2.10612,-0.62843 -4.08163,-1.3382 z"
         id="path1437" />
      <path
         style="fill:#ffffff;fill-opacity:1;stroke-width:0.653061"
         d="m 147.26531,246.51828 c -0.89796,-0.30926 -19.41225,-6.14627 -41.14286,-12.97115 -21.730613,-6.82488 -41.69522,-13.3136 -44.365793,-14.41938 -5.229692,-2.16542 -11.250905,-6.32155 -12.582686,-8.68516 -0.805073,-1.42883 -1.191998,-13.09123 -0.458658,-13.82457 0.273863,-0.27386 37.375611,10.61605 80.014917,23.48557 l 5.30165,1.60016 7.20591,10.29098 c 3.96325,5.66004 7.85144,11.39303 8.64041,12.73996 1.34407,2.29462 1.35838,2.44573 0.22713,2.39743 -0.66406,-0.0284 -1.94206,-0.30459 -2.84002,-0.61384 z"
         id="path1439" />
      <path
         style="fill:#ffffff;fill-opacity:1;stroke-width:0.653061"
         d="m 121.46939,268.79306 c -22.174954,-8.66493 -25.370315,-10.52836 -28.519289,-16.6315 -1.469703,-2.84848 -2.309899,-8.87345 -1.440456,-10.32937 0.480891,-0.80528 4.78395,0.21563 27.018575,6.4102 14.54562,4.05241 27.10473,7.66789 27.90912,8.0344 1.83865,0.83775 1.50248,1.84289 -3.11651,9.31813 -4.07401,6.59326 -5.66263,8.37385 -7.43467,8.33306 -0.74555,-0.0172 -7.2331,-2.32787 -14.41677,-5.13492 z"
         id="path1441" />
      <path
         style="fill:#ffffff;fill-opacity:1;stroke-width:0.653061"
         d="m 160.82904,232.96419 c -3.78721,-4.36518 -21.16366,-32.0877 -27.92768,-44.55603 -6.07682,-11.2016 -15.09472,-29.53453 -14.7148,-29.91444 0.42099,-0.421 3.32928,0.82497 22.2216,9.52019 19.79777,9.11196 32.05809,13.99248 57.04578,22.70847 0.57601,0.20092 -1.01174,2.37006 -4.57143,6.24539 -6.97118,7.58934 -15.97153,18.33627 -23.87845,28.51225 -3.42343,4.40584 -6.44321,8.14585 -6.71063,8.31113 -0.26742,0.16527 -0.9264,-0.20686 -1.46439,-0.82696 z"
         id="path1443" />
      <path
         style="fill:#ffffff;fill-opacity:1;stroke-width:0.653061"
         d="m 147.26531,291.53191 c 0,-1.31131 11.86141,-24.07066 17.31305,-33.2198 15.01409,-25.19722 33.52272,-49.0769 51.52729,-66.48009 7.64267,-7.3874 19.76418,-17.912 22.06816,-19.16086 0.87444,-0.474 2.48193,0.50062 7.5102,4.5534 23.73509,19.13048 49.05172,49.42105 69.11486,82.69381 4.69322,7.78326 16.6297,30.59475 16.6297,31.78059 0,0.71837 -1.01626,0.30082 -13.06122,-5.36635 -5.92653,-2.78845 -13.61783,-6.26897 -17.09176,-7.7345 -22.72882,-9.58846 -50.73244,-17.70015 -61.10541,-17.70015 -16.25356,0 -49.07374,10.54881 -82.12815,26.39701 -5.67822,2.72246 -10.42588,4.94993 -10.55037,4.94993 -0.1245,0 -0.22635,-0.32084 -0.22635,-0.71299 z"
         id="path1445" />
      <path
         style="fill:#ffffff;fill-opacity:1;stroke-width:0.653061"
         d="m 233.09593,311.45662 c -13.25128,-11.00138 -31.66327,-28.53553 -30.83446,-29.36435 1.32738,-1.32738 32.22167,-8.13309 36.91989,-8.13309 5.67662,0 35.90539,6.77643 37.57769,8.42385 1.33039,1.31059 -35.18244,33.37207 -38.00538,33.37207 -0.2641,0 -2.81008,-1.93431 -5.65774,-4.29848 z"
         id="path1447" />
      <path
         style="fill:#ffffff;fill-opacity:1;stroke-width:0.653061"
         d="m 313.36917,230.04082 c -1.09401,-1.16735 -3.86491,-4.62041 -6.15757,-7.67347 -5.59851,-7.45536 -13.81075,-17.25381 -20.86968,-24.90069 l -5.80494,-6.28845 4.05804,-1.45764 c 24.2887,-8.72445 37.61006,-14.2169 60.45736,-24.92679 8.39105,-3.93339 15.38839,-7.01968 15.54964,-6.85842 0.65222,0.65222 -15.06349,30.56643 -25.21881,48.00299 -5.59913,9.61363 -14.0015,22.70328 -15.89081,24.75553 -1.87823,2.04021 -3.7903,1.83628 -6.12323,-0.65306 z"
         id="path1449" />
      <path
         style="fill:#ffffff;fill-opacity:1;stroke-width:0.653061"
         d="m 368,175.61119 c 0,-1.1871 11.39098,-22.5121 12.66382,-23.70788 1.56718,-1.47228 9.54918,-3.91525 63.28309,-19.36837 14.29325,-4.11055 26.4157,-7.47372 26.93878,-7.47372 0.75853,0 0.95104,1.13025 0.95104,5.58346 0,6.32263 -0.6086,7.92861 -4.35433,11.49016 -4.57594,4.35093 -7.95656,5.6125 -47.2375,17.62797 -15.26531,4.66944 -33.06423,10.23303 -39.55317,12.36354 C 368.51897,176.12303 368,176.26552 368,175.61119 Z"
         id="path1451" />
      <path
         style="fill:#ffffff;fill-opacity:1;stroke-width:0.653061"
         d="m 350.36735,210.82098 c 0,-0.21251 2.84196,-5.86808 6.31547,-12.56793 l 6.31547,-12.18154 43.78552,-12.8613 c 25.31499,-7.43587 44.02872,-12.61809 44.36204,-12.28477 0.31709,0.31709 0.47368,3.3841 0.34799,6.81559 l -0.22853,6.23907 -2.61225,2.69903 c -5.07477,5.24336 -9.22346,6.81758 -55.83673,21.18729 -20.29388,6.25609 -38.14694,11.81712 -39.67347,12.35783 -1.52653,0.54071 -2.77551,0.80924 -2.77551,0.59673 z"
         id="path1453" />
      <path
         style="fill:#ffffff;fill-opacity:1;stroke-width:0.653061"
         d="m 327.5102,246.62574 c 0,-1.29708 11.59538,-18.02661 15.1167,-21.81002 l 3.49555,-3.75572 23.83673,-7.14309 c 44.67193,-13.38672 59.6208,-17.69747 60.01263,-17.30564 0.59646,0.59646 0.20529,9.11037 -0.54691,11.90385 -1.93079,7.1704 -8.57739,9.89723 -71.22082,29.21893 -15.98367,4.93 -29.42857,9.10442 -29.87755,9.2765 -0.44898,0.17207 -0.81633,-0.001 -0.81633,-0.38481 z"
         id="path1455" />
      <path
         style="fill:#ffffff;fill-opacity:1;stroke-width:0.653061"
         d="m 338.6266,272.02016 c -2.37806,-3.33968 -8.50415,-13.95814 -8.50415,-14.7404 0,-0.41057 1.10204,-1.07357 2.44898,-1.47335 3.17035,-0.94096 51.5403,-14.27663 53.80922,-14.83528 l 1.72759,-0.42536 -0.95823,5.07486 c -0.52703,2.79118 -1.37838,5.88734 -1.89189,6.88036 -1.7451,3.37466 -5.81428,6.56711 -12.36016,9.69708 -7.96998,3.81093 -29.13549,11.76111 -31.31122,11.76111 -1.00589,0 -2.08081,-0.70412 -2.96014,-1.93902 z"
         id="path1457" />
      <path
         style="fill:#ffffff;fill-opacity:1;stroke-width:0.653061"
         d="m 441.63925,351.96223 c -9.39359,-2.27678 -14.83505,-7.89214 -14.83505,-15.30917 0,-10.0926 10.62037,-17.10554 24.42883,-16.13107 9.74372,0.68763 17.42832,4.90106 20.33873,11.15163 1.86211,3.99918 1.94701,6.37679 0.35271,9.8774 -4.0059,8.79576 -17.6286,13.47886 -30.28522,10.41121 z m 15.19488,-2.63644 c 4.20358,-1.31651 7.78924,-3.95236 8.8588,-6.51217 0.50562,-1.21013 0.91931,-4.26598 0.91931,-6.79076 0,-4.32608 -0.13123,-4.73578 -2.278,-7.11201 -1.28773,-1.42536 -4.0226,-3.30441 -6.2912,-4.3225 -3.61173,-1.62084 -4.57705,-1.77405 -9.64972,-1.53152 -9.5591,0.45702 -13.71639,3.54536 -15.74943,11.69983 -2.78052,11.15253 10.17853,18.95742 24.19024,14.56913 z"
         id="path1459" />
      <path
         style="fill:#ffffff;fill-opacity:1;stroke-width:0.653061"
         d="m 399.581,352.20061 c -0.29823,-0.46952 -0.65173,-7.39245 -0.78554,-15.38428 l -0.2433,-14.53062 h -6.42121 c -7.00711,0 -9.14037,-0.88521 -3.70631,-1.53796 4.41087,-0.52984 21.35209,-0.52984 25.76297,0 5.45645,0.65544 3.28901,1.53796 -3.77717,1.53796 h -6.49207 l -0.0376,12.57143 c -0.045,15.02532 -0.39752,17.71533 -2.35851,17.99653 -0.76944,0.11034 -1.64298,-0.18354 -1.94122,-0.65306 z"
         id="path1461" />
      <path
         style="fill:#ffffff;fill-opacity:1;stroke-width:0.653061"
         d="m 345.04969,352.11928 c -4.12915,-1.55656 -6.67479,-3.35765 -8.04699,-5.69341 -1.19355,-2.03165 -1.32923,-3.37587 -1.32923,-13.16873 0,-7.85415 0.22844,-11.13456 0.81633,-11.72245 1.6642,-1.6642 2.34547,0.71698 3.24558,11.34398 1.36969,16.17117 2.19507,17.16666 14.2238,17.15545 7.87019,-0.007 10.02884,-0.66089 12.29409,-3.72216 1.12538,-1.52085 1.38509,-3.30707 1.84711,-12.70384 0.396,-8.05408 0.78428,-11.18083 1.4741,-11.87065 2.79901,-2.79901 4.10231,2.66161 3.43188,14.37911 -0.57688,10.08251 -2.20002,13.06916 -8.29026,15.25442 -4.06329,1.45797 -16.52592,1.93216 -19.66641,0.74828 z"
         id="path1463" />
      <path
         style="fill:#ffffff;fill-opacity:1;stroke-width:0.653061"
         d="m 283.7551,352.28859 c 0,-1.34668 14.60231,-26.34082 16.82904,-28.80554 3.61535,-4.00177 4.93901,-3.58219 9.61994,3.04939 5.38013,7.62215 15.99846,24.63267 15.99931,25.63083 10e-4,1.39894 -3.25505,0.89393 -4.76897,-0.73961 -0.7931,-0.85577 -2.6158,-3.79138 -4.05045,-6.52358 l -2.60846,-4.96763 -10.12245,-0.004 -10.12245,-0.004 -2.59146,5.05842 c -1.4253,2.78214 -3.24868,5.71965 -4.05195,6.52781 -1.50235,1.51151 -4.1321,2.00689 -4.1321,0.77839 z m 25.74251,-15.37887 c 0.56815,-0.21802 1.033,-0.90715 1.033,-1.5314 0,-0.96503 -4.34972,-8.42138 -5.84792,-10.02458 -0.54501,-0.58322 -5.03096,6.59095 -5.64093,9.02128 -0.21407,0.85291 -0.19726,1.86133 0.0373,2.24092 0.45253,0.73221 8.67199,0.96398 10.41851,0.29378 z"
         id="path1465" />
      <path
         style="fill:#ffffff;fill-opacity:1;stroke-width:0.653061"
         d="m 213.24747,351.7164 c -0.76098,-1.42189 -0.87209,-22.99513 -0.13982,-27.14497 0.35556,-2.01494 0.78876,-2.65915 1.89456,-2.8174 1.9975,-0.28584 4.55036,1.59967 16.19227,11.95941 12.74742,11.3435 14.13256,12.38992 14.80646,11.18574 0.27936,-0.49919 0.70501,-5.92078 0.94589,-12.04798 0.45542,-11.58455 0.82783,-13.5004 2.3321,-11.99756 0.61322,0.61264 0.90514,4.24301 1.06922,13.29717 0.24228,13.36938 -0.14149,18.17572 -1.45125,18.17572 -0.93644,0 -10.95174,-8.02918 -21.95812,-17.60365 -4.13062,-3.59322 -7.84485,-6.53909 -8.25386,-6.54637 -0.97348,-0.0173 -1.37558,2.55703 -1.885,12.06839 -0.59904,11.18489 -1.73782,14.86218 -3.55245,11.4715 z"
         id="path1467" />
      <path
         style="fill:#ffffff;fill-opacity:1;stroke-width:0.653061"
         d="m 170.88371,352.02158 c -10.74823,-2.44655 -15.9807,-9.57151 -13.89,-18.91375 1.48359,-6.62941 7.0581,-10.76945 16.45177,-12.2183 6.57301,-1.01381 15.2715,0.0346 19.15105,2.30812 3.45036,2.02205 8.68807,7.5938 9.25247,9.84257 1.33446,5.3169 -1.2616,11.57948 -6.22633,15.02004 -6.13783,4.25353 -16.30385,5.88136 -24.73896,3.96132 z m 15.56527,-2.43716 c 6.17794,-1.79347 9.80447,-6.60193 9.78518,-12.97428 -0.0207,-6.82991 -5.10831,-11.92825 -13.5631,-13.59163 -5.60577,-1.10287 -10.69353,-0.0314 -15.58607,3.28246 -6.26242,4.24169 -7.24075,13.76 -1.9926,19.38633 4.13315,4.43097 13.5797,6.15477 21.35659,3.89712 z"
         id="path1469" />
      <path
         style="fill:#ffffff;fill-opacity:1;stroke-width:0.653061"
         d="m 111.5629,352.16327 c -0.2828,-0.44898 -0.62753,-7.95743 -0.76606,-16.68544 l -0.25189,-15.8691 3.1765,0.3373 c 1.74708,0.18552 6.26222,0.50634 10.03365,0.71293 13.7077,0.75086 19.32453,2.39958 20.8678,6.12536 1.08497,2.61936 -0.0146,5.92636 -3.10958,9.35214 l -2.32905,2.57797 2.16023,1.69064 c 4.72411,3.69718 5.48377,12.57452 1.07604,12.57452 -1.71682,0 -2.31552,-1.39273 -2.32999,-5.42018 -0.0202,-5.6162 -3.13572,-7.88086 -11.8137,-8.58732 -2.66655,-0.21708 -6.53807,-0.54838 -8.60338,-0.73623 l -3.7551,-0.34153 v 5.86746 c 0,3.22711 -0.28661,6.62129 -0.6369,7.54263 -0.67926,1.7866 -2.82243,2.28158 -3.71857,0.85885 z m 23.70794,-17.228 c 2.47522,-1.17456 4.15773,-3.17681 4.15773,-4.94783 0,-0.63278 -0.81941,-2.06759 -1.82092,-3.18848 -1.75279,-1.9617 -2.08882,-2.0586 -8.9796,-2.58929 -3.93726,-0.30324 -8.40764,-0.5663 -9.93417,-0.58458 l -2.77551,-0.0333 V 329.79592 336 h 8.55436 c 6.55503,0 9.07878,-0.24885 10.79811,-1.06473 z"
         id="path1471" />
      <path
         style="fill:#ffffff;fill-opacity:1;stroke-width:0.653061"
         d="m 69.061665,352.01141 c -10.232959,-2.87755 -15.676986,-8.75306 -15.055394,-16.24864 0.500036,-6.02978 4.953264,-10.9254 12.605974,-13.85829 4.611319,-1.76728 16.267054,-1.77157 20.897959,-0.008 4.49151,1.71079 8.495604,4.55766 10.444802,7.42616 1.842006,2.71076 2.086734,5.80957 0.89869,11.3796 -0.966198,4.52994 -4.57359,8.23256 -10.037369,10.30234 -5.053095,1.9142 -14.766792,2.40912 -19.754662,1.00652 z m 17.690897,-3.52665 c 3.561835,-1.75352 6.608098,-5.48091 7.654116,-9.36552 0.541383,-2.01054 0.467527,-3.22239 -0.345585,-5.67044 -2.046131,-6.16032 -7.639272,-9.84329 -15.745589,-10.36815 -11.079998,-0.71739 -18.560402,4.75067 -18.560402,13.56737 0,5.85713 2.644465,9.91204 8.163265,12.51722 3.931175,1.85573 14.454852,1.47551 18.834195,-0.68048 z"
         id="path1473" />
      <path
         style="fill:#ffffff;fill-opacity:1;stroke-width:0.653061"
         d="M 22.649753,350.63194 C 20.384636,347.88396 11.782384,333.60418 8.0674463,326.42524 6.2228187,322.86059 5.686751,321.2357 6.1894999,320.73295 c 0.4882794,-0.48828 1.047828,-0.49743 1.8284748,-0.0299 1.3076559,0.78317 6.0732843,7.94029 11.3704593,17.0764 2.043231,3.52398 4.437737,7.08626 5.321126,7.91616 l 1.60616,1.50891 1.919789,-2.82676 c 1.055883,-1.55471 3.631537,-5.91246 5.723675,-9.68389 5.820172,-10.49184 8.584316,-14.36735 10.247268,-14.36735 1.297132,0 0.223042,2.86826 -3.796322,10.13773 -5.897546,10.66637 -13.727697,22.51533 -14.878807,22.51533 -0.52054,0 -1.817246,-1.05644 -2.88157,-2.34765 z"
         id="path1500" />
    </g>
  </g>
</svg>
